  0
SECTION
  2
ENTITIES
  0
TEXT
  8
PG-AA
 10
424625.25
 20
4216713.34
 40
.4
 50
0.0
  1
b
 72
1
 73
3
 11
424625.25
 21
4216713.34
  0
TEXT
  8
PG-AS
 10
424625.25
 20
4216713.34
 40
.4
 50
0.0
  1
141350
 72
1
 73
1
 11
424625.25
 21
4216713.34
  0
TEXT
  8
PG-AA
 10
424546.57
 20
4216942.49
 40
.4
 50
0.0
  1
g
 72
1
 73
3
 11
424546.57
 21
4216942.49
  0
TEXT
  8
PG-AS
 10
424546.57
 20
4216942.49
 40
.4
 50
0.0
  1
67340
 72
1
 73
1
 11
424546.57
 21
4216942.49
  0
TEXT
  8
PG-AA
 10
425239.39
 20
4216631.05
 40
.4
 50
0.0
  1
d
 72
1
 73
3
 11
425239.39
 21
4216631.05
  0
TEXT
  8
PG-AS
 10
425239.39
 20
4216631.05
 40
.4
 50
0.0
  1
192170
 72
1
 73
1
 11
425239.39
 21
4216631.05
  0
TEXT
  8
PG-AA
 10
425027.63
 20
4216663.37
 40
.4
 50
0.0
  1
c
 72
1
 73
3
 11
425027.63
 21
4216663.37
  0
TEXT
  8
PG-AS
 10
425027.63
 20
4216663.37
 40
.4
 50
0.0
  1
94197
 72
1
 73
1
 11
425027.63
 21
4216663.37
  0
TEXT
  8
PG-AA
 10
425294.09
 20
4216759.29
 40
.4
 50
0.0
  1
f
 72
1
 73
3
 11
425294.09
 21
4216759.29
  0
TEXT
  8
PG-AS
 10
425294.09
 20
4216759.29
 40
.4
 50
0.0
  1
95895
 72
1
 73
1
 11
425294.09
 21
4216759.29
  0
TEXT
  8
PG-AA
 10
425447.77
 20
4216602.82
 40
.4
 50
0.0
  1
e
 72
1
 73
3
 11
425447.77
 21
4216602.82
  0
TEXT
  8
PG-AS
 10
425447.77
 20
4216602.82
 40
.4
 50
0.0
  1
22367
 72
1
 73
1
 11
425447.77
 21
4216602.82
  0
TEXT
  8
PG-AA
 10
425591.07
 20
4216837.8
 40
.4
 50
0.0
  1
a
 72
1
 73
3
 11
425591.07
 21
4216837.8
  0
TEXT
  8
PG-AS
 10
425591.07
 20
4216837.8
 40
.4
 50
0.0
  1
6962
 72
1
 73
1
 11
425591.07
 21
4216837.8
  0
TEXT
  8
PG-AA
 10
425623.29
 20
4216814.02
 40
.4
 50
0.0
  1
I
 72
1
 73
3
 11
425623.29
 21
4216814.02
  0
TEXT
  8
PG-AS
 10
425623.29
 20
4216814.02
 40
.4
 50
0.0
  1
231
 72
1
 73
1
 11
425623.29
 21
4216814.02
  0
TEXT
  8
PG-AA
 10
425627.11
 20
4216839.56
 40
.4
 50
0.0
  1
I
 72
1
 73
3
 11
425627.11
 21
4216839.56
  0
TEXT
  8
PG-AS
 10
425627.11
 20
4216839.56
 40
.4
 50
0.0
  1
200
 72
1
 73
1
 11
425627.11
 21
4216839.56
  0
TEXT
  8
PG-AA
 10
425533.02
 20
4216847.4
 40
.4
 50
0.0
  1
I
 72
1
 73
3
 11
425533.02
 21
4216847.4
  0
TEXT
  8
PG-AS
 10
425533.02
 20
4216847.4
 40
.4
 50
0.0
  1
219
 72
1
 73
1
 11
425533.02
 21
4216847.4
  0
TEXT
  8
PG-AA
 10
425584.2
 20
4216847.59
 40
.4
 50
0.0
  1
CO
 72
1
 73
3
 11
425584.2
 21
4216847.59
  0
TEXT
  8
PG-AS
 10
425584.2
 20
4216847.59
 40
.4
 50
0.0
  1
350
 72
1
 73
1
 11
425584.2
 21
4216847.59
  0
TEXT
  8
PG-AA
 10
425588.39
 20
4216858.84
 40
.4
 50
0.0
  1
I
 72
1
 73
3
 11
425588.39
 21
4216858.84
  0
TEXT
  8
PG-AS
 10
425588.39
 20
4216858.84
 40
.4
 50
0.0
  1
490
 72
1
 73
1
 11
425588.39
 21
4216858.84
  0
TEXT
  8
PG-AA
 10
425514.18
 20
4216854.89
 40
.4
 50
0.0
  1
I
 72
1
 73
3
 11
425514.18
 21
4216854.89
  0
TEXT
  8
PG-AS
 10
425514.18
 20
4216854.89
 40
.4
 50
0.0
  1
25
 72
1
 73
1
 11
425514.18
 21
4216854.89
  0
TEXT
  8
PG-AA
 10
425768.96
 20
4216757.2
 40
.4
 50
0.0
  1
I
 72
1
 73
3
 11
425768.96
 21
4216757.2
  0
TEXT
  8
PG-AS
 10
425768.96
 20
4216757.2
 40
.4
 50
0.0
  1
168
 72
1
 73
1
 11
425768.96
 21
4216757.2
  0
TEXT
  8
PG-AA
 10
425745.14
 20
4216766.58
 40
.4
 50
0.0
  1
PI
 72
1
 73
3
 11
425745.14
 21
4216766.58
  0
TEXT
  8
PG-AS
 10
425745.14
 20
4216766.58
 40
.4
 50
0.0
  1
191
 72
1
 73
1
 11
425745.14
 21
4216766.58
  0
TEXT
  8
PG-AA
 10
425768.2
 20
4216765.66
 40
.4
 50
0.0
  1
POR
 72
1
 73
3
 11
425768.2
 21
4216765.66
  0
TEXT
  8
PG-AS
 10
425768.2
 20
4216765.66
 40
.4
 50
0.0
  1
70
 72
1
 73
1
 11
425768.2
 21
4216765.66
  0
POLYLINE
  8
PG-LP
 66
1
  0
VERTEX
 8
PG-LP
 10
424311.221
 20
4216912.964
  0
VERTEX
 8
PG-LP
 10
424308.709
 20
4216969.667
  0
VERTEX
 8
PG-LP
 10
424422.532
 20
4216945.6885
  0
VERTEX
 8
PG-LP
 10
424421.0635
 20
4216947.9395
  0
VERTEX
 8
PG-LP
 10
424389.065
 20
4216996.99
  0
VERTEX
 8
PG-LP
 10
424346.934
 20
4217075.762
  0
VERTEX
 8
PG-LP
 10
424354.6
 20
4217076.092
  0
VERTEX
 8
PG-LP
 10
424369.1
 20
4217075.182
  0
VERTEX
 8
PG-LP
 10
424385.7
 20
4217067.182
  0
VERTEX
 8
PG-LP
 10
424476.66
 20
4217023.3325
  0
VERTEX
 8
PG-LP
 10
424501.63
 20
4217019.4625
  0
VERTEX
 8
PG-LP
 10
424576.2505
 20
4217015.382
  0
VERTEX
 8
PG-LP
 10
424640.011
 20
4217013.462
  0
VERTEX
 8
PG-LP
 10
424722.7315
 20
4217010.962
  0
VERTEX
 8
PG-LP
 10
424723.4315
 20
4217010.972
  0
SEQEND
  8
0
  0
LINE
  8
PG-LP
 10
424312.8
 20
4216877.3285
 11
424311.221
 21
4216912.964
  0
POLYLINE
  8
PG-LP
 66
1
  0
VERTEX
 8
PG-LP
 10
425083.032
 20
4216463.3695
  0
VERTEX
 8
PG-LP
 10
425070.7165
 20
4216465.084
  0
VERTEX
 8
PG-LP
 10
424976.626
 20
4216469.043
  0
VERTEX
 8
PG-LP
 10
424970.417
 20
4216477.869
  0
VERTEX
 8
PG-LP
 10
424948.686
 20
4216500.769
  0
VERTEX
 8
PG-LP
 10
424920.3765
 20
4216526.8255
  0
VERTEX
 8
PG-LP
 10
424876.62
 20
4216567.38
  0
VERTEX
 8
PG-LP
 10
424778.311
 20
4216632.7145
  0
VERTEX
 8
PG-LP
 10
424660.3405
 20
4216677.6065
  0
VERTEX
 8
PG-LP
 10
424595.062
 20
4216614.7115
  0
VERTEX
 8
PG-LP
 10
424552.298
 20
4216573.509
  0
VERTEX
 8
PG-LP
 10
424551.505
 20
4216575.418
  0
VERTEX
 8
PG-LP
 10
424551.015
 20
4216576.598
  0
VERTEX
 8
PG-LP
 10
424539.935
 20
4216592.828
  0
VERTEX
 8
PG-LP
 10
424494.665
 20
4216590.868
  0
VERTEX
 8
PG-LP
 10
424488.715
 20
4216594.668
  0
VERTEX
 8
PG-LP
 10
424452.515
 20
4216611.158
  0
VERTEX
 8
PG-LP
 10
424443.1645
 20
4216608.278
  0
VERTEX
 8
PG-LP
 10
424427.0645
 20
4216602.588
  0
VERTEX
 8
PG-LP
 10
424406.8545
 20
4216630.788
  0
VERTEX
 8
PG-LP
 10
424255.3565
 20
4216836.7255
  0
VERTEX
 8
PG-LP
 10
424219.4165
 20
4216884.735
  0
VERTEX
 8
PG-LP
 10
424224.467
 20
4216888.085
  0
VERTEX
 8
PG-LP
 10
424231.947
 20
4216888.945
  0
VERTEX
 8
PG-LP
 10
424232.997
 20
4216888.725
  0
VERTEX
 8
PG-LP
 10
424233.327
 20
4216888.655
  0
VERTEX
 8
PG-LP
 10
424240.967
 20
4216887.045
  0
VERTEX
 8
PG-LP
 10
424241.687
 20
4216886.895
  0
VERTEX
 8
PG-LP
 10
424245.897
 20
4216885.815
  0
VERTEX
 8
PG-LP
 10
424246.127
 20
4216885.775
  0
VERTEX
 8
PG-LP
 10
424253.027
 20
4216884.555
  0
VERTEX
 8
PG-LP
 10
424273.307
 20
4216884.945
  0
VERTEX
 8
PG-LP
 10
424282.607
 20
4216883.755
  0
VERTEX
 8
PG-LP
 10
424290.907
 20
4216882.335
  0
VERTEX
 8
PG-LP
 10
424293.837
 20
4216881.835
  0
VERTEX
 8
PG-LP
 10
424304.607
 20
4216879.435
  0
VERTEX
 8
PG-LP
 10
424311.497
 20
4216877.665
  0
VERTEX
 8
PG-LP
 10
424312.8
 20
4216877.3285
  0
SEQEND
  8
0
  0
POLYLINE
  8
PG-LI
 66
1
  0
VERTEX
 8
PG-LI
 10
424312.8
 20
4216877.3285
  0
VERTEX
 8
PG-LI
 10
424317.387
 20
4216876.145
  0
VERTEX
 8
PG-LI
 10
424318.617
 20
4216875.995
  0
VERTEX
 8
PG-LI
 10
424324.137
 20
4216874.195
  0
VERTEX
 8
PG-LI
 10
424355.3575
 20
4216871.235
  0
VERTEX
 8
PG-LI
 10
424356.1675
 20
4216872.035
  0
VERTEX
 8
PG-LI
 10
424415.3675
 20
4216867.8645
  0
VERTEX
 8
PG-LI
 10
424543.158
 20
4216837.6045
  0
VERTEX
 8
PG-LI
 10
424580.2185
 20
4216832.4545
  0
VERTEX
 8
PG-LI
 10
424600.9885
 20
4216835.2645
  0
VERTEX
 8
PG-LI
 10
424637.959
 20
4216851.704
  0
VERTEX
 8
PG-LI
 10
424664.899
 20
4216859.554
  0
VERTEX
 8
PG-LI
 10
424694.1895
 20
4216863.854
  0
VERTEX
 8
PG-LI
 10
424729.9895
 20
4216868.2635
  0
VERTEX
 8
PG-LI
 10
424741.42
 20
4216876.7335
  0
VERTEX
 8
PG-LI
 10
424747.56
 20
4216887.1235
  0
SEQEND
  8
0
  0
LINE
  8
PG-LP
 10
424723.4315
 20
4217010.972
 11
424743.2615
 21
4217011.3715
  0
POLYLINE
  8
PG-LI
 66
1
  0
VERTEX
 8
PG-LI
 10
424723.4315
 20
4217010.972
  0
VERTEX
 8
PG-LI
 10
424741.761
 20
4216956.1625
  0
VERTEX
 8
PG-LI
 10
424749.0205
 20
4216910.863
  0
VERTEX
 8
PG-LI
 10
424750.66
 20
4216892.363
  0
SEQEND
  8
0
  0
POLYLINE
  8
PG-LP
 66
1
  0
VERTEX
 8
PG-LP
 10
424743.2615
 20
4217011.3715
  0
VERTEX
 8
PG-LP
 10
424807.8815
 20
4216987.842
  0
VERTEX
 8
PG-LP
 10
424826.2415
 20
4216983.7615
  0
VERTEX
 8
PG-LP
 10
424842.1615
 20
4216983.6415
  0
VERTEX
 8
PG-LP
 10
424867.382
 20
4216983.3715
  0
VERTEX
 8
PG-LP
 10
424884.292
 20
4216982.6315
  0
VERTEX
 8
PG-LP
 10
424895.552
 20
4216986.3815
  0
VERTEX
 8
PG-LP
 10
424908.052
 20
4216992.7315
  0
VERTEX
 8
PG-LP
 10
424916.0625
 20
4216999.751
  0
VERTEX
 8
PG-LP
 10
424925.2225
 20
4217010.261
  0
VERTEX
 8
PG-LP
 10
424932.7825
 20
4217020.901
  0
VERTEX
 8
PG-LP
 10
424940.583
 20
4217040.8705
  0
VERTEX
 8
PG-LP
 10
424944.553
 20
4217052.8505
  0
VERTEX
 8
PG-LP
 10
424949.1535
 20
4217067.1805
  0
VERTEX
 8
PG-LP
 10
424949.2735
 20
4217067.55
  0
VERTEX
 8
PG-LP
 10
424953.4135
 20
4217076.83
  0
VERTEX
 8
PG-LP
 10
424958.6635
 20
4217080.36
  0
VERTEX
 8
PG-LP
 10
424967.4035
 20
4217082.65
  0
VERTEX
 8
PG-LP
 10
424976.2135
 20
4217082.42
  0
VERTEX
 8
PG-LP
 10
424997.664
 20
4217077.29
  0
VERTEX
 8
PG-LP
 10
425022.474
 20
4217067.18
  0
VERTEX
 8
PG-LP
 10
425039.554
 20
4217060.22
  0
VERTEX
 8
PG-LP
 10
425096.154
 20
4217035.12
  0
VERTEX
 8
PG-LP
 10
425121.734
 20
4217034.74
  0
VERTEX
 8
PG-LP
 10
425130.744
 20
4217033.19
  0
VERTEX
 8
PG-LP
 10
425176.704
 20
4217020.28
  0
VERTEX
 8
PG-LP
 10
425252.3845
 20
4216996.95
  0
VERTEX
 8
PG-LP
 10
425259.2445
 20
4216995.12
  0
VERTEX
 8
PG-LP
 10
425306.2545
 20
4216980.49
  0
VERTEX
 8
PG-LP
 10
425355.0945
 20
4216966.5
  0
VERTEX
 8
PG-LP
 10
425408.7845
 20
4216951.12
  0
VERTEX
 8
PG-LP
 10
425452.8145
 20
4216938.57
  0
VERTEX
 8
PG-LP
 10
425456.8445
 20
4216936.18
  0
VERTEX
 8
PG-LP
 10
425464.2145
 20
4216933.19
  0
VERTEX
 8
PG-LP
 10
425495.7145
 20
4216921.93
  0
VERTEX
 8
PG-LP
 10
425504.4145
 20
4216916.69
  0
VERTEX
 8
PG-LP
 10
425528.9645
 20
4216904.11
  0
VERTEX
 8
PG-LP
 10
425541.2745
 20
4216895.35
  0
SEQEND
  8
0
  0
LINE
  8
PG-LI
 10
424750.66
 20
4216892.363
 11
424747.56
 21
4216887.1235
  0
LINE
  8
PG-LI
 10
424747.56
 20
4216887.1235
 11
424752.96
 21
4216876.5735
  0
POLYLINE
  8
PG-LI
 66
1
  0
VERTEX
 8
PG-LI
 10
424752.96
 20
4216876.5735
  0
VERTEX
 8
PG-LI
 10
424754.1
 20
4216874.3435
  0
VERTEX
 8
PG-LI
 10
424773.0195
 20
4216839.924
  0
VERTEX
 8
PG-LI
 10
424779.3295
 20
4216826.074
  0
VERTEX
 8
PG-LI
 10
424785.089
 20
4216787.9345
  0
VERTEX
 8
PG-LI
 10
424790.208
 20
4216719.4755
  0
VERTEX
 8
PG-LI
 10
424792.898
 20
4216704.2755
  0
VERTEX
 8
PG-LI
 10
424795.848
 20
4216694.1855
  0
VERTEX
 8
PG-LI
 10
424812.438
 20
4216698.7655
  0
VERTEX
 8
PG-LI
 10
424831.3685
 20
4216706.9355
  0
VERTEX
 8
PG-LI
 10
424849.4085
 20
4216715.405
  0
VERTEX
 8
PG-LI
 10
424871.9085
 20
4216720.605
  0
VERTEX
 8
PG-LI
 10
424882.639
 20
4216722.065
  0
VERTEX
 8
PG-LI
 10
424890.1485
 20
4216715.025
  0
VERTEX
 8
PG-LI
 10
424943.478
 20
4216637.036
  0
VERTEX
 8
PG-LI
 10
425010.638
 20
4216580.9365
  0
VERTEX
 8
PG-LI
 10
425024.748
 20
4216566.8765
  0
VERTEX
 8
PG-LI
 10
425050.537
 20
4216508.167
  0
VERTEX
 8
PG-LI
 10
425063.657
 20
4216480.8575
  0
VERTEX
 8
PG-LI
 10
425079.367
 20
4216466.6775
  0
SEQEND
  8
0
  0
LINE
  8
PG-LI
 10
424845.7505
 20
4216871.313
 11
424752.96
 21
4216876.5735
  0
POLYLINE
  8
PG-LI
 66
1
  0
VERTEX
 8
PG-LI
 10
425265.876
 20
4216439.348
  0
VERTEX
 8
PG-LI
 10
425264.318
 20
4216452.847
  0
VERTEX
 8
PG-LI
 10
425262.388
 20
4216461.387
  0
VERTEX
 8
PG-LI
 10
425257.518
 20
4216473.287
  0
VERTEX
 8
PG-LI
 10
425252.2785
 20
4216491.9865
  0
VERTEX
 8
PG-LI
 10
425248.5385
 20
4216505.1665
  0
VERTEX
 8
PG-LI
 10
425243.4185
 20
4216524.466
  0
VERTEX
 8
PG-LI
 10
425239.2385
 20
4216535.856
  0
VERTEX
 8
PG-LI
 10
425233.289
 20
4216548.376
  0
VERTEX
 8
PG-LI
 10
425218.139
 20
4216577.0755
  0
VERTEX
 8
PG-LI
 10
425185.6595
 20
4216645.035
  0
VERTEX
 8
PG-LI
 10
425168.36
 20
4216676.1845
  0
VERTEX
 8
PG-LI
 10
425163.81
 20
4216684.0745
  0
VERTEX
 8
PG-LI
 10
425143.37
 20
4216708.384
  0
VERTEX
 8
PG-LI
 10
425133.7705
 20
4216718.874
  0
VERTEX
 8
PG-LI
 10
425123.6805
 20
4216725.484
  0
VERTEX
 8
PG-LI
 10
425111.1105
 20
4216732.834
  0
VERTEX
 8
PG-LI
 10
425093.3305
 20
4216748.354
  0
VERTEX
 8
PG-LI
 10
424979.121
 20
4216846.503
  0
VERTEX
 8
PG-LI
 10
424962.8305
 20
4216840.813
  0
VERTEX
 8
PG-LI
 10
424947.9305
 20
4216835.403
  0
VERTEX
 8
PG-LI
 10
424927.2505
 20
4216831.2835
  0
VERTEX
 8
PG-LI
 10
424908.77
 20
4216826.5235
  0
VERTEX
 8
PG-LI
 10
424893.52
 20
4216824.1335
  0
VERTEX
 8
PG-LI
 10
424876.17
 20
4216822.0735
  0
VERTEX
 8
PG-LI
 10
424862.81
 20
4216825.9835
  0
VERTEX
 8
PG-LI
 10
424855.63
 20
4216834.5235
  0
VERTEX
 8
PG-LI
 10
424848.41
 20
4216854.8135
  0
VERTEX
 8
PG-LI
 10
424845.7505
 20
4216871.313
  0
SEQEND
  8
0
  0
LINE
  8
PG-LI
 10
425079.367
 20
4216466.6775
 11
425083.032
 21
4216463.3695
  0
POLYLINE
  8
PG-LP
 66
1
  0
VERTEX
 8
PG-LP
 10
425255.3825
 20
4216440.39
  0
VERTEX
 8
PG-LP
 10
425230.018
 20
4216442.908
  0
VERTEX
 8
PG-LP
 10
425083.032
 20
4216463.3695
  0
SEQEND
  8
0
  0
LINE
  8
PG-LP
 10
425265.876
 20
4216439.348
 11
425255.3825
 21
4216440.39
  0
POLYLINE
  8
PG-LP
 66
1
  0
VERTEX
 8
PG-LP
 10
425369.4465
 20
4216435.33
  0
VERTEX
 8
PG-LP
 10
425365.1465
 20
4216435.3785
  0
VERTEX
 8
PG-LP
 10
425305.08
 20
4216436.053
  0
VERTEX
 8
PG-LP
 10
425298.3015
 20
4216436.129
  0
VERTEX
 8
PG-LP
 10
425284.2575
 20
4216437.5235
  0
VERTEX
 8
PG-LP
 10
425265.876
 20
4216439.348
  0
SEQEND
  8
0
  0
POLYLINE
  8
PG-LI
 66
1
  0
VERTEX
 8
PG-LI
 10
425462.5725
 20
4216743.1025
  0
VERTEX
 8
PG-LI
 10
425464.6425
 20
4216751.4625
  0
VERTEX
 8
PG-LI
 10
425469.1525
 20
4216761.372
  0
VERTEX
 8
PG-LI
 10
425472.6725
 20
4216772.002
  0
VERTEX
 8
PG-LI
 10
425473.623
 20
4216779.882
  0
VERTEX
 8
PG-LI
 10
425471.443
 20
4216785.822
  0
VERTEX
 8
PG-LI
 10
425466.443
 20
4216796.1215
  0
VERTEX
 8
PG-LI
 10
425451.713
 20
4216820.8215
  0
VERTEX
 8
PG-LI
 10
425431.7735
 20
4216844.7215
  0
VERTEX
 8
PG-LI
 10
425412.8635
 20
4216860.501
  0
VERTEX
 8
PG-LI
 10
425402.4835
 20
4216867.611
  0
VERTEX
 8
PG-LI
 10
425381.8235
 20
4216880.921
  0
VERTEX
 8
PG-LI
 10
425365.5235
 20
4216891.651
  0
VERTEX
 8
PG-LI
 10
425349.784
 20
4216900.571
  0
VERTEX
 8
PG-LI
 10
425320.8135
 20
4216914.351
  0
VERTEX
 8
PG-LI
 10
425312.944
 20
4216921.311
  0
VERTEX
 8
PG-LI
 10
425301.214
 20
4216925.441
  0
VERTEX
 8
PG-LI
 10
425275.2635
 20
4216934.461
  0
VERTEX
 8
PG-LI
 10
425198.4735
 20
4216965.2005
  0
VERTEX
 8
PG-LI
 10
425149.4935
 20
4216984.0805
  0
VERTEX
 8
PG-LI
 10
425129.3735
 20
4216989.5805
  0
VERTEX
 8
PG-LI
 10
425107.9035
 20
4216997.7105
  0
VERTEX
 8
PG-LI
 10
425107.7235
 20
4216988.7205
  0
VERTEX
 8
PG-LI
 10
425109.2825
 20
4216916.5815
  0
VERTEX
 8
PG-LI
 10
425095.7525
 20
4216916.6215
  0
VERTEX
 8
PG-LI
 10
425053.2925
 20
4216936.4215
  0
VERTEX
 8
PG-LI
 10
425042.8525
 20
4216934.1615
  0
VERTEX
 8
PG-LI
 10
425029.842
 20
4216927.612
  0
VERTEX
 8
PG-LI
 10
425044.782
 20
4216908.722
  0
VERTEX
 8
PG-LI
 10
425064.772
 20
4216892.372
  0
VERTEX
 8
PG-LI
 10
425073.152
 20
4216883.712
  0
VERTEX
 8
PG-LI
 10
425085.542
 20
4216875.1025
  0
VERTEX
 8
PG-LI
 10
425094.812
 20
4216872.2525
  0
VERTEX
 8
PG-LI
 10
425105.642
 20
4216864.3525
  0
VERTEX
 8
PG-LI
 10
425118.362
 20
4216849.5925
  0
VERTEX
 8
PG-LI
 10
425149.5715
 20
4216803.263
  0
VERTEX
 8
PG-LI
 10
425162.431
 20
4216785.413
  0
VERTEX
 8
PG-LI
 10
425172.421
 20
4216774.003
  0
VERTEX
 8
PG-LI
 10
425184.861
 20
4216765.3535
  0
VERTEX
 8
PG-LI
 10
425193.461
 20
4216759.8835
  0
VERTEX
 8
PG-LI
 10
425205.821
 20
4216752.1335
  0
VERTEX
 8
PG-LI
 10
425216.201
 20
4216745.5335
  0
VERTEX
 8
PG-LI
 10
425223.521
 20
4216740.6835
  0
VERTEX
 8
PG-LI
 10
425231.031
 20
4216730.7335
  0
VERTEX
 8
PG-LI
 10
425243.081
 20
4216712.294
  0
VERTEX
 8
PG-LI
 10
425251.681
 20
4216701.814
  0
VERTEX
 8
PG-LI
 10
425257.8605
 20
4216690.594
  0
VERTEX
 8
PG-LI
 10
425265.6505
 20
4216679.534
  0
VERTEX
 8
PG-LI
 10
425271.3705
 20
4216675.124
  0
VERTEX
 8
PG-LI
 10
425279.6605
 20
4216669.054
  0
VERTEX
 8
PG-LI
 10
425282.0705
 20
4216664.4045
  0
VERTEX
 8
PG-LI
 10
425281.7705
 20
4216649.5145
  0
VERTEX
 8
PG-LI
 10
425279.91
 20
4216631.7445
  0
VERTEX
 8
PG-LI
 10
425279.71
 20
4216621.655
  0
VERTEX
 8
PG-LI
 10
425278.79
 20
4216610.865
  0
VERTEX
 8
PG-LI
 10
425277.83
 20
4216602.685
  0
VERTEX
 8
PG-LI
 10
425283.8995
 20
4216595.665
  0
VERTEX
 8
PG-LI
 10
425298.92
 20
4216590.665
  0
VERTEX
 8
PG-LI
 10
425313.62
 20
4216589.765
  0
VERTEX
 8
PG-LI
 10
425329.09
 20
4216587.155
  0
VERTEX
 8
PG-LI
 10
425339.52
 20
4216583.355
  0
VERTEX
 8
PG-LI
 10
425346.79
 20
4216576.005
  0
VERTEX
 8
PG-LI
 10
425349.15
 20
4216563.9555
  0
VERTEX
 8
PG-LI
 10
425348.9695
 20
4216554.8555
  0
VERTEX
 8
PG-LI
 10
425346.5195
 20
4216542.8055
  0
VERTEX
 8
PG-LI
 10
425341.8295
 20
4216533.5055
  0
VERTEX
 8
PG-LI
 10
425336.729
 20
4216523.606
  0
VERTEX
 8
PG-LI
 10
425331.659
 20
4216510.606
  0
VERTEX
 8
PG-LI
 10
425328.639
 20
4216499.966
  0
VERTEX
 8
PG-LI
 10
425327.0585
 20
4216490.9965
  0
VERTEX
 8
PG-LI
 10
425326.9085
 20
4216483.4965
  0
VERTEX
 8
PG-LI
 10
425331.3285
 20
4216474.0065
  0
VERTEX
 8
PG-LI
 10
425338.7585
 20
4216464.9565
  0
VERTEX
 8
PG-LI
 10
425354.9485
 20
4216448.6365
  0
VERTEX
 8
PG-LI
 10
425363.1085
 20
4216441.267
  0
VERTEX
 8
PG-LI
 10
425369.1085
 20
4216435.647
  0
SEQEND
  8
0
  0
LINE
  8
PG-LI
 10
425369.1085
 20
4216435.647
 11
425369.4465
 21
4216435.33
  0
POLYLINE
  8
PG-LP
 66
1
  0
VERTEX
 8
PG-LP
 10
425432.1235
 20
4216434.6265
  0
VERTEX
 8
PG-LP
 10
425372.7705
 20
4216435.293
  0
VERTEX
 8
PG-LP
 10
425369.4465
 20
4216435.33
  0
SEQEND
  8
0
  0
POLYLINE
  8
PG-LI
 66
1
  0
VERTEX
 8
PG-LI
 10
425462.5725
 20
4216743.1025
  0
VERTEX
 8
PG-LI
 10
425377.252
 20
4216737.303
  0
VERTEX
 8
PG-LI
 10
425390.5515
 20
4216701.3335
  0
VERTEX
 8
PG-LI
 10
425391.7915
 20
4216693.4135
  0
VERTEX
 8
PG-LI
 10
425385.021
 20
4216675.3435
  0
VERTEX
 8
PG-LI
 10
425379.911
 20
4216665.344
  0
VERTEX
 8
PG-LI
 10
425377.751
 20
4216657.294
  0
VERTEX
 8
PG-LI
 10
425386.851
 20
4216646.604
  0
VERTEX
 8
PG-LI
 10
425393.891
 20
4216638.064
  0
VERTEX
 8
PG-LI
 10
425398.4205
 20
4216629.274
  0
VERTEX
 8
PG-LI
 10
425403.9405
 20
4216614.9645
  0
VERTEX
 8
PG-LI
 10
425423.9
 20
4216556.765
  0
VERTEX
 8
PG-LI
 10
425451.719
 20
4216475.996
  0
VERTEX
 8
PG-LI
 10
425454.389
 20
4216464.146
  0
VERTEX
 8
PG-LI
 10
425454.769
 20
4216452.936
  0
VERTEX
 8
PG-LI
 10
425448.6885
 20
4216444.4565
  0
VERTEX
 8
PG-LI
 10
425439.2685
 20
4216439.1465
  0
VERTEX
 8
PG-LI
 10
425432.1235
 20
4216434.6265
  0
SEQEND
  8
0
  0
LINE
  8
PG-LP
 10
425501.122
 20
4216433.8515
 11
425432.1235
 21
4216434.6265
  0
LINE
  8
PG-LI
 10
425462.432
 20
4216735.8025
 11
425462.5725
 21
4216743.1025
  0
POLYLINE
  8
PG-LI
 66
1
  0
VERTEX
 8
PG-LI
 10
425501.7
 20
4216433.8145
  0
VERTEX
 8
PG-LI
 10
425498.199
 20
4216476.6655
  0
VERTEX
 8
PG-LI
 10
425496.5595
 20
4216520.005
  0
VERTEX
 8
PG-LI
 10
425495.0505
 20
4216564.5345
  0
VERTEX
 8
PG-LI
 10
425491.751
 20
4216610.104
  0
VERTEX
 8
PG-LI
 10
425489.111
 20
4216643.0635
  0
VERTEX
 8
PG-LI
 10
425488.6415
 20
4216649.6735
  0
VERTEX
 8
PG-LI
 10
425486.1515
 20
4216655.4235
  0
VERTEX
 8
PG-LI
 10
425481.0615
 20
4216661.0235
  0
VERTEX
 8
PG-LI
 10
425471.7015
 20
4216673.713
  0
VERTEX
 8
PG-LI
 10
425469.1015
 20
4216679.063
  0
VERTEX
 8
PG-LI
 10
425466.9015
 20
4216688.913
  0
VERTEX
 8
PG-LI
 10
425463.532
 20
4216700.773
  0
VERTEX
 8
PG-LI
 10
425461.922
 20
4216710.213
  0
VERTEX
 8
PG-LI
 10
425461.482
 20
4216718.2225
  0
VERTEX
 8
PG-LI
 10
425461.622
 20
4216725.4125
  0
VERTEX
 8
PG-LI
 10
425462.432
 20
4216735.8025
  0
SEQEND
  8
0
  0
LINE
  8
PG-LP
 10
425501.7
 20
4216433.8145
 11
425501.122
 21
4216433.8515
  0
POLYLINE
  8
PG-LP
 66
1
  0
VERTEX
 8
PG-LP
 10
425669.794
 20
4216847.23
  0
VERTEX
 8
PG-LP
 10
425719.8945
 20
4216841.28
  0
VERTEX
 8
PG-LP
 10
425729.0345
 20
4216840.48
  0
VERTEX
 8
PG-LP
 10
425730.7945
 20
4216840.44
  0
VERTEX
 8
PG-LP
 10
425762.1045
 20
4216836.4495
  0
VERTEX
 8
PG-LP
 10
425766.8945
 20
4216835.8695
  0
VERTEX
 8
PG-LP
 10
425771.6345
 20
4216835.1295
  0
VERTEX
 8
PG-LP
 10
425781.3645
 20
4216830.3795
  0
VERTEX
 8
PG-LP
 10
425788.2945
 20
4216826.3395
  0
VERTEX
 8
PG-LP
 10
425793.2445
 20
4216821.7595
  0
VERTEX
 8
PG-LP
 10
425818.354
 20
4216800.5
  0
VERTEX
 8
PG-LP
 10
425825.664
 20
4216794.63
  0
VERTEX
 8
PG-LP
 10
425864.674
 20
4216762.17
  0
VERTEX
 8
PG-LP
 10
425867.364
 20
4216758.32
  0
VERTEX
 8
PG-LP
 10
425768.1635
 20
4216742.481
  0
VERTEX
 8
PG-LP
 10
425674.543
 20
4216727.7515
  0
VERTEX
 8
PG-LP
 10
425644.5125
 20
4216728.0615
  0
VERTEX
 8
PG-LP
 10
425594.1815
 20
4216634.563
  0
VERTEX
 8
PG-LP
 10
425578.321
 20
4216587.774
  0
VERTEX
 8
PG-LP
 10
425560.4705
 20
4216556.624
  0
VERTEX
 8
PG-LP
 10
425543.13
 20
4216540.2745
  0
VERTEX
 8
PG-LP
 10
425520.37
 20
4216523.925
  0
VERTEX
 8
PG-LP
 10
425558.8195
 20
4216464.1555
  0
VERTEX
 8
PG-LP
 10
425565.559
 20
4216445.4155
  0
VERTEX
 8
PG-LP
 10
425573.079
 20
4216435.9655
  0
VERTEX
 8
PG-LP
 10
425574.899
 20
4216426.826
  0
VERTEX
 8
PG-LP
 10
425559.5855
 20
4216427.7825
  0
VERTEX
 8
PG-LP
 10
425558.236
 20
4216430.2155
  0
VERTEX
 8
PG-LP
 10
425501.7
 20
4216433.8145
  0
SEQEND
  8
0
  0
POLYLINE
  8
PG-LI
 66
1
  0
VERTEX
 8
PG-LI
 10
425510.9935
 20
4216853.371
  0
VERTEX
 8
PG-LI
 10
425515.6935
 20
4216851.691
  0
VERTEX
 8
PG-LI
 10
425517.384
 20
4216856.4005
  0
VERTEX
 8
PG-LI
 10
425512.674
 20
4216858.0805
  0
VERTEX
 8
PG-LI
 10
425510.9935
 20
4216853.371
  0
SEQEND
  8
0
  0
POLYLINE
  8
PG-LI
 66
1
  0
VERTEX
 8
PG-LI
 10
425541.2745
 20
4216895.35
  0
VERTEX
 8
PG-LI
 10
425512.7135
 20
4216836.601
  0
VERTEX
 8
PG-LI
 10
425516.7735
 20
4216834.621
  0
VERTEX
 8
PG-LI
 10
425604.9135
 20
4216800.851
  0
VERTEX
 8
PG-LI
 10
425642.5835
 20
4216786.901
  0
VERTEX
 8
PG-LI
 10
425669.794
 20
4216847.23
  0
SEQEND
  8
0
  0
LINE
  8
PG-LP
 10
425541.2745
 20
4216895.35
 11
425573.004
 21
4216877.27
  0
POLYLINE
  8
PG-LI
 66
1
  0
VERTEX
 8
PG-LI
 10
425549.004
 20
4216854.7705
  0
VERTEX
 8
PG-LI
 10
425545.174
 20
4216860.0405
  0
VERTEX
 8
PG-LI
 10
425516.8435
 20
4216839.581
  0
VERTEX
 8
PG-LI
 10
425520.2835
 20
4216834.671
  0
VERTEX
 8
PG-LI
 10
425549.004
 20
4216854.7705
  0
SEQEND
  8
0
  0
LINE
  8
PG-LI
 10
425574.444
 20
4216871.51
 11
425569.554
 21
4216858.3905
  0
POLYLINE
  8
PG-LI
 66
1
  0
VERTEX
 8
PG-LI
 10
425569.554
 20
4216858.3905
  0
VERTEX
 8
PG-LI
 10
425566.054
 20
4216849.0205
  0
VERTEX
 8
PG-LI
 10
425598.854
 20
4216836.8005
  0
VERTEX
 8
PG-LI
 10
425602.344
 20
4216846.1705
  0
SEQEND
  8
0
  0
LINE
  8
PG-LI
 10
425569.554
 20
4216858.3905
 11
425602.344
 21
4216846.1705
  0
POLYLINE
  8
PG-LP
 66
1
  0
VERTEX
 8
PG-LP
 10
425573.004
 20
4216877.27
  0
VERTEX
 8
PG-LP
 10
425576.904
 20
4216875.27
  0
VERTEX
 8
PG-LP
 10
425582.574
 20
4216871.12
  0
VERTEX
 8
PG-LP
 10
425610.004
 20
4216860.92
  0
VERTEX
 8
PG-LP
 10
425615.694
 20
4216858.97
  0
VERTEX
 8
PG-LP
 10
425620.284
 20
4216858.32
  0
VERTEX
 8
PG-LP
 10
425655.734
 20
4216851.61
  0
VERTEX
 8
PG-LP
 10
425660.104
 20
4216849.37
  0
VERTEX
 8
PG-LP
 10
425669.794
 20
4216847.23
  0
SEQEND
  8
0
  0
POLYLINE
  8
PG-LI
 66
1
  0
VERTEX
 8
PG-LI
 10
425602.344
 20
4216846.1705
  0
VERTEX
 8
PG-LI
 10
425607.234
 20
4216859.29
  0
VERTEX
 8
PG-LI
 10
425574.444
 20
4216871.51
  0
SEQEND
  8
0
  0
POLYLINE
  8
PG-LI
 66
1
  0
VERTEX
 8
PG-LI
 10
425607.444
 20
4216843.9505
  0
VERTEX
 8
PG-LI
 10
425645.094
 20
4216830.4505
  0
VERTEX
 8
PG-LI
 10
425646.784
 20
4216835.1605
  0
VERTEX
 8
PG-LI
 10
425609.134
 20
4216848.6605
  0
VERTEX
 8
PG-LI
 10
425607.444
 20
4216843.9505
  0
SEQEND
  8
0
  0
POLYLINE
  8
PG-LI
 66
1
  0
VERTEX
 8
PG-LI
 10
425641.622
 20
4216810.6185
  0
VERTEX
 8
PG-LI
 10
425602.206
 20
4216824.982
  0
VERTEX
 8
PG-LI
 10
425600.5945
 20
4216820.5605
  0
VERTEX
 8
PG-LI
 10
425634.096
 20
4216808.3525
  0
VERTEX
 8
PG-LI
 10
425632.2755
 20
4216803.3575
  0
VERTEX
 8
PG-LI
 10
425638.1905
 20
4216801.202
  0
VERTEX
 8
PG-LI
 10
425641.622
 20
4216810.6185
  0
SEQEND
  8
0
  0
POLYLINE
  8
PG-LI
 66
1
  0
VERTEX
 8
PG-LI
 10
425741.3635
 20
4216755.301
  0
VERTEX
 8
PG-LI
 10
425748.9135
 20
4216756.1605
  0
VERTEX
 8
PG-LI
 10
425748.0635
 20
4216768.0705
  0
VERTEX
 8
PG-LI
 10
425752.2135
 20
4216768.3705
  0
VERTEX
 8
PG-LI
 10
425751.6535
 20
4216776.1205
  0
VERTEX
 8
PG-LI
 10
425744.6735
 20
4216775.6305
  0
VERTEX
 8
PG-LI
 10
425743.5735
 20
4216775.3905
  0
VERTEX
 8
PG-LI
 10
425742.5235
 20
4216774.9705
  0
VERTEX
 8
PG-LI
 10
425741.5735
 20
4216774.3705
  0
VERTEX
 8
PG-LI
 10
425740.7435
 20
4216773.6105
  0
VERTEX
 8
PG-LI
 10
425740.0635
 20
4216772.7105
  0
VERTEX
 8
PG-LI
 10
425739.6835
 20
4216772.0405
  0
VERTEX
 8
PG-LI
 10
425739.5435
 20
4216771.7105
  0
VERTEX
 8
PG-LI
 10
425739.2135
 20
4216770.6405
  0
VERTEX
 8
PG-LI
 10
425739.0835
 20
4216769.5205
  0
VERTEX
 8
PG-LI
 10
425739.1435
 20
4216768.3905
  0
VERTEX
 8
PG-LI
 10
425739.4135
 20
4216767.3005
  0
VERTEX
 8
PG-LI
 10
425741.3635
 20
4216755.301
  0
SEQEND
  8
0
  0
LINE
  8
PG-LI
 10
425761.4535
 20
4216762.5505
 11
425775.4035
 21
4216763.7905
  0
POLYLINE
  8
PG-LI
 66
1
  0
VERTEX
 8
PG-LI
 10
425775.4035
 20
4216763.7905
  0
VERTEX
 8
PG-LI
 10
425774.9635
 20
4216768.7705
  0
VERTEX
 8
PG-LI
 10
425761.0135
 20
4216767.5305
  0
VERTEX
 8
PG-LI
 10
425761.4535
 20
4216762.5505
  0
SEQEND
  8
0
  0
POLYLINE
  8
PG-LI
 66
1
  0
VERTEX
 8
PG-LI
 10
425761.4535
 20
4216762.5505
  0
VERTEX
 8
PG-LI
 10
425762.5235
 20
4216750.6005
  0
VERTEX
 8
PG-LI
 10
425776.4635
 20
4216751.8405
  0
VERTEX
 8
PG-LI
 10
425775.4035
 20
4216763.7905
  0
SEQEND
  8
0
  0
ENDSEC
  0
EOF
