  0
SECTION
  2
ENTITIES
  0
TEXT
  8
PG-AA
 10
424214.88
 20
4216937.83
 40
.4
 50
0.0
  1
0
 72
1
 73
3
 11
424214.88
 21
4216937.83
  0
TEXT
  8
PG-AS
 10
424214.88
 20
4216937.83
 40
.4
 50
0.0
  1
4759
 72
1
 73
1
 11
424214.88
 21
4216937.83
  0
TEXT
  8
PG-AA
 10
424245.08
 20
4217019.59
 40
.4
 50
0.0
  1
0
 72
1
 73
3
 11
424245.08
 21
4217019.59
  0
TEXT
  8
PG-AS
 10
424245.08
 20
4217019.59
 40
.4
 50
0.0
  1
5075
 72
1
 73
1
 11
424245.08
 21
4217019.59
  0
LINE
  8
PG-LI
 10
424217.024
 20
4216983.645
 11
424227.905
 21
4216989.787
  0
POLYLINE
  8
PG-LP
 66
1
  0
VERTEX
 8
PG-LP
 10
424217.024
 20
4216983.645
  0
VERTEX
 8
PG-LP
 10
424193.719
 20
4217055.7145
  0
VERTEX
 8
PG-LP
 10
424193.9585
 20
4217055.763
  0
VERTEX
 8
PG-LP
 10
424197.863
 20
4217056.5385
  0
VERTEX
 8
PG-LP
 10
424200.269
 20
4217057.023
  0
VERTEX
 8
PG-LP
 10
424205.863
 20
4217058.297
  0
VERTEX
 8
PG-LP
 10
424207.002
 20
4217058.012
  0
VERTEX
 8
PG-LP
 10
424224.055
 20
4217053.015
  0
VERTEX
 8
PG-LP
 10
424236.172
 20
4217049.835
  0
VERTEX
 8
PG-LP
 10
424248.4
 20
4217047.3
  0
VERTEX
 8
PG-LP
 10
424259.971
 20
4217047.785
  0
VERTEX
 8
PG-LP
 10
424268.167
 20
4217049.254
  0
VERTEX
 8
PG-LP
 10
424274.648
 20
4217050.602
  0
VERTEX
 8
PG-LP
 10
424276.513
 20
4217050.115
  0
VERTEX
 8
PG-LP
 10
424278.674
 20
4217038.151
  0
VERTEX
 8
PG-LP
 10
424280.594
 20
4217030.458
  0
VERTEX
 8
PG-LP
 10
424283.948
 20
4217019.357
  0
VERTEX
 8
PG-LP
 10
424286.558
 20
4217012.265
  0
VERTEX
 8
PG-LP
 10
424291.001
 20
4216998.823
  0
VERTEX
 8
PG-LP
 10
424294.23
 20
4216987.518
  0
VERTEX
 8
PG-LP
 10
424297.092
 20
4216973.372
  0
VERTEX
 8
PG-LP
 10
424282.684
 20
4216980.273
  0
VERTEX
 8
PG-LP
 10
424268.358
 20
4216987.583
  0
VERTEX
 8
PG-LP
 10
424265.83
 20
4216988.956
  0
VERTEX
 8
PG-LP
 10
424243.077
 20
4216996.138
  0
VERTEX
 8
PG-LP
 10
424228.811
 20
4216990.299
  0
VERTEX
 8
PG-LP
 10
424227.905
 20
4216989.787
  0
SEQEND
  8
0
  0
POLYLINE
  8
PG-LP
 66
1
  0
VERTEX
 8
PG-LP
 10
424227.905
 20
4216989.787
  0
VERTEX
 8
PG-LP
 10
424253.357
 20
4216884.5615
  0
VERTEX
 8
PG-LP
 10
424253.027
 20
4216884.555
  0
VERTEX
 8
PG-LP
 10
424246.127
 20
4216885.775
  0
VERTEX
 8
PG-LP
 10
424245.897
 20
4216885.815
  0
VERTEX
 8
PG-LP
 10
424241.687
 20
4216886.895
  0
VERTEX
 8
PG-LP
 10
424240.967
 20
4216887.045
  0
VERTEX
 8
PG-LP
 10
424238.4765
 20
4216887.57
  0
VERTEX
 8
PG-LP
 10
424233.327
 20
4216888.655
  0
VERTEX
 8
PG-LP
 10
424232.997
 20
4216888.725
  0
VERTEX
 8
PG-LP
 10
424231.949
 20
4216888.9475
  0
VERTEX
 8
PG-LP
 10
424229.637
 20
4216888.6795
  0
VERTEX
 8
PG-LP
 10
424224.467
 20
4216888.085
  0
VERTEX
 8
PG-LP
 10
424221.687
 20
4216886.245
  0
VERTEX
 8
PG-LP
 10
424219.4165
 20
4216884.735
  0
VERTEX
 8
PG-LP
 10
424204.653
 20
4216905.828
  0
VERTEX
 8
PG-LP
 10
424166.824
 20
4216959.873
  0
VERTEX
 8
PG-LP
 10
424217.024
 20
4216983.645
  0
SEQEND
  8
0
  0
ENDSEC
  0
EOF
