  0
SECTION
  2
ENTITIES
  0
TEXT
  8
PG-AA
 10
423842.9
 20
4216652.2
 40
.4
 50
0.0
  1
II
 72
1
 73
3
 11
423842.9
 21
4216652.2
  0
TEXT
  8
PG-AS
 10
423842.9
 20
4216652.2
 40
.4
 50
0.0
  1
92
 72
1
 73
1
 11
423842.9
 21
4216652.2
  0
TEXT
  8
PG-AA
 10
423843.05
 20
4216659.91
 40
.4
 50
0.0
  1
I
 72
1
 73
3
 11
423843.05
 21
4216659.91
  0
TEXT
  8
PG-AS
 10
423843.05
 20
4216659.91
 40
.4
 50
0.0
  1
23
 72
1
 73
1
 11
423843.05
 21
4216659.91
  0
TEXT
  8
PG-AA
 10
423837.55
 20
4216647.91
 40
.4
 50
0.0
  1
I
 72
1
 73
3
 11
423837.55
 21
4216647.91
  0
TEXT
  8
PG-AS
 10
423837.55
 20
4216647.91
 40
.4
 50
0.0
  1
13
 72
1
 73
1
 11
423837.55
 21
4216647.91
  0
TEXT
  8
PG-AA
 10
423838.61
 20
4216656.89
 40
.4
 50
0.0
  1
I
 72
1
 73
3
 11
423838.61
 21
4216656.89
  0
TEXT
  8
PG-AS
 10
423838.61
 20
4216656.89
 40
.4
 50
0.0
  1
17
 72
1
 73
1
 11
423838.61
 21
4216656.89
  0
TEXT
  8
PG-AA
 10
423842.52
 20
4216928.62
 40
.4
 50
0.0
  1
DEP
 72
1
 73
3
 11
423842.52
 21
4216928.62
  0
TEXT
  8
PG-AS
 10
423842.52
 20
4216928.62
 40
.4
 50
0.0
  1
271
 72
1
 73
1
 11
423842.52
 21
4216928.62
  0
TEXT
  8
PG-AA
 10
423839.99
 20
4216616.16
 40
.4
 50
0.0
  1
PI
 72
1
 73
3
 11
423839.99
 21
4216616.16
  0
TEXT
  8
PG-AS
 10
423839.99
 20
4216616.16
 40
.4
 50
0.0
  1
61
 72
1
 73
1
 11
423839.99
 21
4216616.16
  0
TEXT
  8
PG-AA
 10
423840.98
 20
4216607.09
 40
.4
 50
0.0
  1
I+P
 72
1
 73
3
 11
423840.98
 21
4216607.09
  0
TEXT
  8
PG-AS
 10
423840.98
 20
4216607.09
 40
.4
 50
0.0
  1
239
 72
1
 73
1
 11
423840.98
 21
4216607.09
  0
TEXT
  8
PG-AA
 10
423774.73
 20
4216829.38
 40
.4
 50
0.0
  1
CONS
 72
1
 73
3
 11
423774.73
 21
4216829.38
  0
TEXT
  8
PG-AS
 10
423774.73
 20
4216829.38
 40
.4
 50
0.0
  1
119
 72
1
 73
1
 11
423774.73
 21
4216829.38
  0
TEXT
  8
PG-AA
 10
423760.05
 20
4216845.75
 40
.4
 50
0.0
  1
I
 72
1
 73
3
 11
423760.05
 21
4216845.75
  0
TEXT
  8
PG-AS
 10
423760.05
 20
4216845.75
 40
.4
 50
0.0
  1
17
 72
1
 73
1
 11
423760.05
 21
4216845.75
  0
TEXT
  8
PG-AA
 10
423765.43
 20
4216845.96
 40
.4
 50
0.0
  1
I
 72
1
 73
3
 11
423765.43
 21
4216845.96
  0
TEXT
  8
PG-AS
 10
423765.43
 20
4216845.96
 40
.4
 50
0.0
  1
37
 72
1
 73
1
 11
423765.43
 21
4216845.96
  0
TEXT
  8
PG-AA
 10
423765.01
 20
4216888.43
 40
.4
 50
0.0
  1
I
 72
1
 73
3
 11
423765.01
 21
4216888.43
  0
TEXT
  8
PG-AS
 10
423765.01
 20
4216888.43
 40
.4
 50
0.0
  1
603
 72
1
 73
1
 11
423765.01
 21
4216888.43
  0
TEXT
  8
PG-AA
 10
423855.65
 20
4216457.78
 40
.4
 50
0.0
  1
0
 72
1
 73
3
 11
423855.65
 21
4216457.78
  0
TEXT
  8
PG-AS
 10
423855.65
 20
4216457.78
 40
.4
 50
0.0
  1
621481
 72
1
 73
1
 11
423855.65
 21
4216457.78
  0
POLYLINE
  8
PG-LP
 66
1
  0
VERTEX
 8
PG-LP
 10
423671.55
 20
4216535.224
  0
VERTEX
 8
PG-LP
 10
423674.176
 20
4216527.15
  0
VERTEX
 8
PG-LP
 10
423675.365
 20
4216523.227
  0
VERTEX
 8
PG-LP
 10
423675.447
 20
4216519.967
  0
VERTEX
 8
PG-LP
 10
423674.189
 20
4216517.058
  0
VERTEX
 8
PG-LP
 10
423672.284
 20
4216514.883
  0
VERTEX
 8
PG-LP
 10
423669.2
 20
4216513.251
  0
VERTEX
 8
PG-LP
 10
423664.755
 20
4216512.798
  0
VERTEX
 8
PG-LP
 10
423659.222
 20
4216512.344
  0
VERTEX
 8
PG-LP
 10
423647.611
 20
4216513.613
  0
VERTEX
 8
PG-LP
 10
423640.466
 20
4216514.623
  0
VERTEX
 8
PG-LP
 10
423663.599
 20
4216483.765
  0
VERTEX
 8
PG-LP
 10
423703.942
 20
4216448.683
  0
VERTEX
 8
PG-LP
 10
423712.333
 20
4216441.361
  0
VERTEX
 8
PG-LP
 10
423726.547
 20
4216446.977
  0
VERTEX
 8
PG-LP
 10
423732.606
 20
4216451.711
  0
VERTEX
 8
PG-LP
 10
423737.675
 20
4216457.217
  0
VERTEX
 8
PG-LP
 10
423739.437
 20
4216463.823
  0
VERTEX
 8
PG-LP
 10
423739.437
 20
4216469.108
  0
VERTEX
 8
PG-LP
 10
423739.149
 20
4216472.503
  0
VERTEX
 8
PG-LP
 10
423738.701
 20
4216475.42
  0
VERTEX
 8
PG-LP
 10
423717.243
 20
4216540.389
  0
VERTEX
 8
PG-LP
 10
423714.274
 20
4216549.033
  0
VERTEX
 8
PG-LP
 10
423669.334
 20
4216540.116
  0
VERTEX
 8
PG-LP
 10
423671.55
 20
4216535.224
  0
SEQEND
  8
0
  0
LINE
  8
PG-LI
 10
423761.6735
 20
4216849.277
 11
423768.7935
 21
4216849.327
  0
POLYLINE
  8
PG-LI
 66
1
  0
VERTEX
 8
PG-LI
 10
423761.6735
 20
4216849.277
  0
VERTEX
 8
PG-LI
 10
423761.1045
 20
4216934.026
  0
VERTEX
 8
PG-LI
 10
423768.2145
 20
4216934.076
  0
SEQEND
  8
0
  0
POLYLINE
  8
PG-LI
 66
1
  0
VERTEX
 8
PG-LI
 10
423761.7135
 20
4216844.1275
  0
VERTEX
 8
PG-LI
 10
423758.4635
 20
4216844.0975
  0
VERTEX
 8
PG-LI
 10
423758.4335
 20
4216849.257
  0
VERTEX
 8
PG-LI
 10
423761.6735
 20
4216849.277
  0
SEQEND
  8
0
  0
LINE
  8
PG-LI
 10
423761.6735
 20
4216849.277
 11
423761.7135
 21
4216844.1275
  0
LINE
  8
PG-LI
 10
423768.8235
 20
4216844.177
 11
423761.7135
 21
4216844.1275
  0
POLYLINE
  8
PG-LI
 66
1
  0
VERTEX
 8
PG-LI
 10
423765.9735
 20
4216833.0075
  0
VERTEX
 8
PG-LI
 10
423781.0635
 20
4216835.3475
  0
VERTEX
 8
PG-LI
 10
423782.2635
 20
4216827.6175
  0
VERTEX
 8
PG-LI
 10
423767.173
 20
4216825.2775
  0
VERTEX
 8
PG-LI
 10
423765.9735
 20
4216833.0075
  0
SEQEND
  8
0
  0
LINE
  8
PG-LI
 10
423768.2145
 20
4216934.076
 11
423768.7935
 21
4216849.327
  0
LINE
  8
PG-LI
 10
423768.7935
 20
4216849.327
 11
423768.8235
 21
4216844.177
  0
POLYLINE
  8
PG-LP
 66
1
  0
VERTEX
 8
PG-LP
 10
423770.332
 20
4216909.747
  0
VERTEX
 8
PG-LP
 10
423770.332
 20
4216851.937
  0
VERTEX
 8
PG-LP
 10
423770.63
 20
4216842.4
  0
VERTEX
 8
PG-LP
 10
423836.792
 20
4216851.341
  0
VERTEX
 8
PG-LP
 10
423849.607
 20
4216848.062
  0
VERTEX
 8
PG-LP
 10
423841.292
 20
4216915.437
  0
VERTEX
 8
PG-LP
 10
423770.332
 20
4216909.747
  0
SEQEND
  8
0
  0
POLYLINE
  8
PG-LI
 66
1
  0
VERTEX
 8
PG-LI
 10
423833.091
 20
4216615.1
  0
VERTEX
 8
PG-LI
 10
423833.081
 20
4216615.86
  0
VERTEX
 8
PG-LI
 10
423833.261
 20
4216616.59
  0
VERTEX
 8
PG-LI
 10
423833.631
 20
4216617.24
  0
VERTEX
 8
PG-LI
 10
423834.161
 20
4216617.78
  0
VERTEX
 8
PG-LI
 10
423834.821
 20
4216618.15
  0
VERTEX
 8
PG-LI
 10
423835.541
 20
4216618.34
  0
VERTEX
 8
PG-LI
 10
423836.301
 20
4216618.34
  0
VERTEX
 8
PG-LI
 10
423837.821
 20
4216618.02
  0
VERTEX
 8
PG-LI
 10
423838.051
 20
4216617.84
  0
VERTEX
 8
PG-LI
 10
423838.771
 20
4216617.46
  0
VERTEX
 8
PG-LI
 10
423839.611
 20
4216617.25
  0
VERTEX
 8
PG-LI
 10
423840.391
 20
4216617.26
  0
VERTEX
 8
PG-LI
 10
423841.241
 20
4216617.68
  0
VERTEX
 8
PG-LI
 10
423841.991
 20
4216618.28
  0
VERTEX
 8
PG-LI
 10
423842.371
 20
4216618.95
  0
VERTEX
 8
PG-LI
 10
423842.871
 20
4216619.45
  0
VERTEX
 8
PG-LI
 10
423843.481
 20
4216619.79
  0
VERTEX
 8
PG-LI
 10
423844.171
 20
4216619.94
  0
VERTEX
 8
PG-LI
 10
423844.871
 20
4216619.9
  0
VERTEX
 8
PG-LI
 10
423845.321
 20
4216619.76
  0
VERTEX
 8
PG-LI
 10
423845.531
 20
4216619.66
  0
VERTEX
 8
PG-LI
 10
423846.091
 20
4216619.24
  0
VERTEX
 8
PG-LI
 10
423846.521
 20
4216618.68
  0
VERTEX
 8
PG-LI
 10
423846.821
 20
4216617.6
  0
VERTEX
 8
PG-LI
 10
423846.741
 20
4216616.42
  0
VERTEX
 8
PG-LI
 10
423846.501
 20
4216615.59
  0
VERTEX
 8
PG-LI
 10
423846.171
 20
4216615.17
  0
VERTEX
 8
PG-LI
 10
423845.651
 20
4216614.78
  0
VERTEX
 8
PG-LI
 10
423844.341
 20
4216614.48
  0
VERTEX
 8
PG-LI
 10
423834.911
 20
4216612.87
  0
VERTEX
 8
PG-LI
 10
423834.241
 20
4216613.22
  0
VERTEX
 8
PG-LI
 10
423833.701
 20
4216613.74
  0
VERTEX
 8
PG-LI
 10
423833.301
 20
4216614.38
  0
VERTEX
 8
PG-LI
 10
423833.091
 20
4216615.1
  0
SEQEND
  8
0
  0
POLYLINE
  8
PG-LI
 66
1
  0
VERTEX
 8
PG-LI
 10
423833.835
 20
4216931.936
  0
VERTEX
 8
PG-LI
 10
423834.305
 20
4216933.006
  0
VERTEX
 8
PG-LI
 10
423834.585
 20
4216933.516
  0
VERTEX
 8
PG-LI
 10
423834.895
 20
4216934.006
  0
VERTEX
 8
PG-LI
 10
423835.615
 20
4216934.936
  0
VERTEX
 8
PG-LI
 10
423836.435
 20
4216935.756
  0
VERTEX
 8
PG-LI
 10
423837.365
 20
4216936.476
  0
VERTEX
 8
PG-LI
 10
423837.855
 20
4216936.786
  0
VERTEX
 8
PG-LI
 10
423838.895
 20
4216937.316
  0
VERTEX
 8
PG-LI
 10
423839.435
 20
4216937.526
  0
VERTEX
 8
PG-LI
 10
423840.555
 20
4216937.856
  0
VERTEX
 8
PG-LI
 10
423841.715
 20
4216938.0355
  0
VERTEX
 8
PG-LI
 10
423842.295
 20
4216938.0655
  0
VERTEX
 8
PG-LI
 10
423843.465
 20
4216938.0355
  0
VERTEX
 8
PG-LI
 10
423844.035
 20
4216937.9555
  0
VERTEX
 8
PG-LI
 10
423845.175
 20
4216937.7055
  0
VERTEX
 8
PG-LI
 10
423845.735
 20
4216937.5255
  0
VERTEX
 8
PG-LI
 10
423846.805
 20
4216937.0555
  0
VERTEX
 8
PG-LI
 10
423847.315
 20
4216936.7755
  0
VERTEX
 8
PG-LI
 10
423847.805
 20
4216936.4655
  0
VERTEX
 8
PG-LI
 10
423848.725
 20
4216935.746
  0
VERTEX
 8
PG-LI
 10
423849.555
 20
4216934.926
  0
VERTEX
 8
PG-LI
 10
423849.925
 20
4216934.476
  0
VERTEX
 8
PG-LI
 10
423850.585
 20
4216933.506
  0
VERTEX
 8
PG-LI
 10
423850.865
 20
4216932.996
  0
VERTEX
 8
PG-LI
 10
423851.325
 20
4216931.926
  0
VERTEX
 8
PG-LI
 10
423851.505
 20
4216931.366
  0
VERTEX
 8
PG-LI
 10
423851.755
 20
4216930.226
  0
VERTEX
 8
PG-LI
 10
423851.865
 20
4216929.066
  0
VERTEX
 8
PG-LI
 10
423851.865
 20
4216928.486
  0
VERTEX
 8
PG-LI
 10
423851.755
 20
4216927.326
  0
VERTEX
 8
PG-LI
 10
423851.505
 20
4216926.186
  0
VERTEX
 8
PG-LI
 10
423851.325
 20
4216925.626
  0
VERTEX
 8
PG-LI
 10
423850.855
 20
4216924.556
  0
VERTEX
 8
PG-LI
 10
423850.575
 20
4216924.046
  0
VERTEX
 8
PG-LI
 10
423850.265
 20
4216923.556
  0
VERTEX
 8
PG-LI
 10
423849.545
 20
4216922.636
  0
VERTEX
 8
PG-LI
 10
423849.145
 20
4216922.206
  0
VERTEX
 8
PG-LI
 10
423848.265
 20
4216921.436
  0
VERTEX
 8
PG-LI
 10
423847.305
 20
4216920.776
  0
VERTEX
 8
PG-LI
 10
423846.795
 20
4216920.496
  0
VERTEX
 8
PG-LI
 10
423845.725
 20
4216920.036
  0
VERTEX
 8
PG-LI
 10
423845.165
 20
4216919.856
  0
VERTEX
 8
PG-LI
 10
423844.025
 20
4216919.606
  0
VERTEX
 8
PG-LI
 10
423842.865
 20
4216919.496
  0
VERTEX
 8
PG-LI
 10
423842.285
 20
4216919.496
  0
VERTEX
 8
PG-LI
 10
423841.115
 20
4216919.606
  0
VERTEX
 8
PG-LI
 10
423839.985
 20
4216919.856
  0
VERTEX
 8
PG-LI
 10
423839.425
 20
4216920.036
  0
VERTEX
 8
PG-LI
 10
423838.355
 20
4216920.506
  0
VERTEX
 8
PG-LI
 10
423837.845
 20
4216920.786
  0
VERTEX
 8
PG-LI
 10
423837.355
 20
4216921.096
  0
VERTEX
 8
PG-LI
 10
423836.425
 20
4216921.816
  0
VERTEX
 8
PG-LI
 10
423835.605
 20
4216922.646
  0
VERTEX
 8
PG-LI
 10
423834.885
 20
4216923.566
  0
VERTEX
 8
PG-LI
 10
423834.295
 20
4216924.566
  0
VERTEX
 8
PG-LI
 10
423834.045
 20
4216925.096
  0
VERTEX
 8
PG-LI
 10
423833.835
 20
4216925.636
  0
VERTEX
 8
PG-LI
 10
423833.505
 20
4216926.756
  0
VERTEX
 8
PG-LI
 10
423833.325
 20
4216927.916
  0
VERTEX
 8
PG-LI
 10
423833.295
 20
4216928.496
  0
VERTEX
 8
PG-LI
 10
423833.325
 20
4216929.666
  0
VERTEX
 8
PG-LI
 10
423833.405
 20
4216930.246
  0
VERTEX
 8
PG-LI
 10
423833.655
 20
4216931.376
  0
VERTEX
 8
PG-LI
 10
423833.835
 20
4216931.936
  0
SEQEND
  8
0
  0
LINE
  8
PG-LI
 10
423835.9615
 20
4216658.0695
 11
423841.1415
 21
4216660.0695
  0
LINE
  8
PG-LI
 10
423837.3015
 20
4216655.1995
 11
423835.9615
 21
4216658.0695
  0
LINE
  8
PG-LI
 10
423836.8815
 20
4216655.0395
 11
423837.3015
 21
4216655.1995
  0
LINE
  8
PG-LI
 10
423838.4315
 20
4216651.0895
 11
423836.8815
 21
4216655.0395
  0
LINE
  8
PG-LI
 10
423837.3015
 20
4216655.1995
 11
423842.2815
 21
4216657.1595
  0
POLYLINE
  8
PG-LI
 66
1
  0
VERTEX
 8
PG-LI
 10
423840.1615
 20
4216646.6895
  0
VERTEX
 8
PG-LI
 10
423837.5615
 20
4216645.6695
  0
VERTEX
 8
PG-LI
 10
423835.8315
 20
4216650.0595
  0
VERTEX
 8
PG-LI
 10
423838.4315
 20
4216651.0895
  0
SEQEND
  8
0
  0
LINE
  8
PG-LI
 10
423840.1615
 20
4216646.6895
 11
423838.4315
 21
4216651.0895
  0
LINE
  8
PG-LI
 10
423849.7215
 20
4216650.4495
 11
423840.1615
 21
4216646.6895
  0
POLYLINE
  8
PG-LI
 66
1
  0
VERTEX
 8
PG-LI
 10
423841.1415
 20
4216660.0695
  0
VERTEX
 8
PG-LI
 10
423840.1115
 20
4216662.6895
  0
VERTEX
 8
PG-LI
 10
423844.0015
 20
4216663.7995
  0
SEQEND
  8
0
  0
LINE
  8
PG-LI
 10
423842.2815
 20
4216657.1595
 11
423841.1415
 21
4216660.0695
  0
LINE
  8
PG-LI
 10
423842.2815
 20
4216657.1595
 11
423846.0215
 21
4216658.6395
  0
LINE
  8
PG-LI
 10
423844.0015
 20
4216663.7995
 11
423846.0215
 21
4216658.6395
  0
POLYLINE
  8
PG-LI
 66
1
  0
VERTEX
 8
PG-LI
 10
423846.0215
 20
4216658.6395
  0
VERTEX
 8
PG-LI
 10
423846.4315
 20
4216658.7995
  0
VERTEX
 8
PG-LI
 10
423849.7215
 20
4216650.4495
  0
SEQEND
  8
0
  0
POLYLINE
  8
PG-LI
 66
1
  0
VERTEX
 8
PG-LI
 10
423851.891
 20
4216614.13
  0
VERTEX
 8
PG-LI
 10
423853.001
 20
4216608.02
  0
VERTEX
 8
PG-LI
 10
423853.581
 20
4216604.32
  0
VERTEX
 8
PG-LI
 10
423830.071
 20
4216600.0205
  0
VERTEX
 8
PG-LI
 10
423828.271
 20
4216609.86
  0
VERTEX
 8
PG-LI
 10
423851.891
 20
4216614.13
  0
SEQEND
  8
0
  0
POLYLINE
  8
PG-LP
 66
1
  0
VERTEX
 8
PG-LP
 10
423971.017
 20
4216163.149
  0
VERTEX
 8
PG-LP
 10
423969.899
 20
4216168.088
  0
VERTEX
 8
PG-LP
 10
423967.963
 20
4216176.987
  0
VERTEX
 8
PG-LP
 10
423965.512
 20
4216183.951
  0
VERTEX
 8
PG-LP
 10
423960.995
 20
4216196.46
  0
VERTEX
 8
PG-LP
 10
423956.866
 20
4216205.617
  0
VERTEX
 8
PG-LP
 10
423953.124
 20
4216212.065
  0
VERTEX
 8
PG-LP
 10
423949.124
 20
4216215.547
  0
VERTEX
 8
PG-LP
 10
423944.478
 20
4216217.739
  0
VERTEX
 8
PG-LP
 10
423935.703
 20
4216219.158
  0
VERTEX
 8
PG-LP
 10
423926.413
 20
4216219.158
  0
VERTEX
 8
PG-LP
 10
423908.218
 20
4216216.707
  0
VERTEX
 8
PG-LP
 10
423904.741
 20
4216217.228
  0
VERTEX
 8
PG-LP
 10
423900.117
 20
4216219.639
  0
VERTEX
 8
PG-LP
 10
423897.302
 20
4216221.046
  0
VERTEX
 8
PG-LP
 10
423890.91
 20
4216218.615
  0
VERTEX
 8
PG-LP
 10
423878.604
 20
4216214.214
  0
VERTEX
 8
PG-LP
 10
423871.831
 20
4216207.716
  0
VERTEX
 8
PG-LP
 10
423861.645
 20
4216187.769
  0
VERTEX
 8
PG-LP
 10
423854.173
 20
4216166.62
  0
VERTEX
 8
PG-LP
 10
423971.017
 20
4216163.149
  0
SEQEND
  8
0
  0
POLYLINE
  8
PG-LP
 66
1
  0
VERTEX
 8
PG-LP
 10
424053.0535
 20
4216966.7145
  0
VERTEX
 8
PG-LP
 10
424055.93
 20
4216958.48
  0
VERTEX
 8
PG-LP
 10
424059.28
 20
4216946.78
  0
VERTEX
 8
PG-LP
 10
424063.84
 20
4216932.93
  0
VERTEX
 8
PG-LP
 10
424066.403
 20
4216924.4075
  0
VERTEX
 8
PG-LP
 10
424070.54
 20
4216910.65
  0
VERTEX
 8
PG-LP
 10
424071.76
 20
4216906.2
  0
VERTEX
 8
PG-LP
 10
424072.79
 20
4216902.42
  0
VERTEX
 8
PG-LP
 10
424080.53
 20
4216872.5
  0
VERTEX
 8
PG-LP
 10
424083.47
 20
4216859.48
  0
VERTEX
 8
PG-LP
 10
424085.53
 20
4216854.96
  0
VERTEX
 8
PG-LP
 10
424089.91
 20
4216852.72
  0
VERTEX
 8
PG-LP
 10
424094.56
 20
4216851.47
  0
VERTEX
 8
PG-LP
 10
424099.54
 20
4216852.37
  0
VERTEX
 8
PG-LP
 10
424101.7
 20
4216853.34
  0
VERTEX
 8
PG-LP
 10
424108.36
 20
4216856.32
  0
VERTEX
 8
PG-LP
 10
424112.7575
 20
4216859.4565
  0
VERTEX
 8
PG-LP
 10
424112.86
 20
4216859.53
  0
VERTEX
 8
PG-LP
 10
424115.87
 20
4216862.94
  0
VERTEX
 8
PG-LP
 10
424120.47
 20
4216869.27
  0
VERTEX
 8
PG-LP
 10
424120.5375
 20
4216869.398
  0
VERTEX
 8
PG-LP
 10
424122.54
 20
4216873.19
  0
VERTEX
 8
PG-LP
 10
424124.6
 20
4216877.12
  0
VERTEX
 8
PG-LP
 10
424125.6865
 20
4216879.8945
  0
VERTEX
 8
PG-LP
 10
424131.775
 20
4216897.75
  0
VERTEX
 8
PG-LP
 10
424134.8665
 20
4216901.735
  0
VERTEX
 8
PG-LP
 10
424137.0265
 20
4216911.405
  0
VERTEX
 8
PG-LP
 10
424139.2165
 20
4216917.225
  0
VERTEX
 8
PG-LP
 10
424141.7065
 20
4216922.325
  0
VERTEX
 8
PG-LP
 10
424144.327
 20
4216927.435
  0
VERTEX
 8
PG-LP
 10
424145.959
 20
4216932.891
  0
VERTEX
 8
PG-LP
 10
424147.12
 20
4216936.069
  0
VERTEX
 8
PG-LP
 10
424149.318
 20
4216938.56
  0
VERTEX
 8
PG-LP
 10
424151.472
 20
4216940.396
  0
VERTEX
 8
PG-LP
 10
424154.386
 20
4216942.232
  0
VERTEX
 8
PG-LP
 10
424156.983
 20
4216943.181
  0
VERTEX
 8
PG-LP
 10
424160.15
 20
4216943.435
  0
VERTEX
 8
PG-LP
 10
424164.395
 20
4216942.992
  0
VERTEX
 8
PG-LP
 10
424168.069
 20
4216941.852
  0
VERTEX
 8
PG-LP
 10
424171.059
 20
4216940.599
  0
VERTEX
 8
PG-LP
 10
424174.43
 20
4216937.23
  0
VERTEX
 8
PG-LP
 10
424180.744
 20
4216930.169
  0
VERTEX
 8
PG-LP
 10
424186.492
 20
4216922.432
  0
VERTEX
 8
PG-LP
 10
424194.937
 20
4216909.655
  0
VERTEX
 8
PG-LP
 10
424197.896
 20
4216909.843
  0
VERTEX
 8
PG-LP
 10
424204.6525
 20
4216905.828
  0
VERTEX
 8
PG-LP
 10
424209.172
 20
4216899.371
  0
VERTEX
 8
PG-LP
 10
424206.83
 20
4216900.982
  0
VERTEX
 8
PG-LP
 10
424198.04
 20
4216905.65
  0
VERTEX
 8
PG-LP
 10
424197.247
 20
4216905.347
  0
VERTEX
 8
PG-LP
 10
424197.654
 20
4216903.199
  0
VERTEX
 8
PG-LP
 10
424198.998
 20
4216900.257
  0
VERTEX
 8
PG-LP
 10
424200.278
 20
4216898.082
  0
VERTEX
 8
PG-LP
 10
424201.814
 20
4216895.716
  0
VERTEX
 8
PG-LP
 10
424203.67
 20
4216893.157
  0
VERTEX
 8
PG-LP
 10
424206.038
 20
4216890.855
  0
VERTEX
 8
PG-LP
 10
424209.045
 20
4216888.36
  0
VERTEX
 8
PG-LP
 10
424213.461
 20
4216884.843
  0
VERTEX
 8
PG-LP
 10
424215.893
 20
4216881.9
  0
VERTEX
 8
PG-LP
 10
424218.239
 20
4216878.391
  0
VERTEX
 8
PG-LP
 10
424233.103
 20
4216854.238
  0
VERTEX
 8
PG-LP
 10
424235.189
 20
4216842.914
  0
VERTEX
 8
PG-LP
 10
424233.997
 20
4216819.37
  0
VERTEX
 8
PG-LP
 10
424232.507
 20
4216799.402
  0
VERTEX
 8
PG-LP
 10
424231.017
 20
4216781.521
  0
VERTEX
 8
PG-LP
 10
424231.054
 20
4216764.248
  0
VERTEX
 8
PG-LP
 10
424234.928
 20
4216753.221
  0
VERTEX
 8
PG-LP
 10
424238.207
 20
4216742.493
  0
VERTEX
 8
PG-LP
 10
424243.869
 20
4216729.38
  0
VERTEX
 8
PG-LP
 10
424281.458
 20
4216652.898
  0
VERTEX
 8
PG-LP
 10
424293.526
 20
4216627.543
  0
VERTEX
 8
PG-LP
 10
424304.368
 20
4216610.17
  0
VERTEX
 8
PG-LP
 10
424316.289
 20
4216597.951
  0
VERTEX
 8
PG-LP
 10
424328.21
 20
4216588.713
  0
VERTEX
 8
PG-LP
 10
424340.764
 20
4216584.353
  0
VERTEX
 8
PG-LP
 10
424370.54
 20
4216581.77
  0
VERTEX
 8
PG-LP
 10
424393.477
 20
4216583.646
  0
VERTEX
 8
PG-LP
 10
424407.465
 20
4216589.861
  0
VERTEX
 8
PG-LP
 10
424414.022
 20
4216598.802
  0
VERTEX
 8
PG-LP
 10
424418.1
 20
4216600.721
  0
VERTEX
 8
PG-LP
 10
424427.0645
 20
4216602.588
  0
VERTEX
 8
PG-LP
 10
424443.1645
 20
4216608.278
  0
VERTEX
 8
PG-LP
 10
424452.515
 20
4216611.158
  0
VERTEX
 8
PG-LP
 10
424488.715
 20
4216594.668
  0
VERTEX
 8
PG-LP
 10
424494.665
 20
4216590.868
  0
VERTEX
 8
PG-LP
 10
424531.906
 20
4216592.48
  0
VERTEX
 8
PG-LP
 10
424538.0955
 20
4216592.7485
  0
VERTEX
 8
PG-LP
 10
424539.935
 20
4216592.828
  0
VERTEX
 8
PG-LP
 10
424541.266
 20
4216590.8785
  0
VERTEX
 8
PG-LP
 10
424546.759
 20
4216582.8325
  0
VERTEX
 8
PG-LP
 10
424551.015
 20
4216576.598
  0
VERTEX
 8
PG-LP
 10
424551.505
 20
4216575.418
  0
VERTEX
 8
PG-LP
 10
424552.298
 20
4216573.509
  0
VERTEX
 8
PG-LP
 10
424547.185
 20
4216568.5825
  0
VERTEX
 8
PG-LP
 10
424568.2475
 20
4216526.786
  0
VERTEX
 8
PG-LP
 10
424578.218
 20
4216507.001
  0
VERTEX
 8
PG-LP
 10
424621.5075
 20
4216429.526
  0
VERTEX
 8
PG-LP
 10
424610.7975
 20
4216426.0615
  0
VERTEX
 8
PG-LP
 10
424587.1755
 20
4216423.8125
  0
VERTEX
 8
PG-LP
 10
424514.563
 20
4216420.158
  0
VERTEX
 8
PG-LP
 10
424526.7525
 20
4216377.8505
  0
VERTEX
 8
PG-LP
 10
424519.428
 20
4216377.8
  0
VERTEX
 8
PG-LP
 10
424503.745
 20
4216433.741
  0
VERTEX
 8
PG-LP
 10
424496.891
 20
4216453.41
  0
VERTEX
 8
PG-LP
 10
424494.029
 20
4216463.3515
  0
VERTEX
 8
PG-LP
 10
424491.228
 20
4216473.08
  0
VERTEX
 8
PG-LP
 10
424489.327
 20
4216491.197
  0
VERTEX
 8
PG-LP
 10
424486.049
 20
4216493.582
  0
VERTEX
 8
PG-LP
 10
424481.877
 20
4216490.005
  0
VERTEX
 8
PG-LP
 10
424481.617
 20
4216489.1595
  0
VERTEX
 8
PG-LP
 10
424479.493
 20
4216482.257
  0
VERTEX
 8
PG-LP
 10
424473.532
 20
4216478.68
  0
VERTEX
 8
PG-LP
 10
424457.439
 20
4216481.959
  0
VERTEX
 8
PG-LP
 10
424452.937
 20
4216483.434
  0
VERTEX
 8
PG-LP
 10
424462.897
 20
4216374.456
  0
VERTEX
 8
PG-LP
 10
424400.21
 20
4216370.928
  0
VERTEX
 8
PG-LP
 10
424381.682
 20
4216501.545
  0
VERTEX
 8
PG-LP
 10
424368.814
 20
4216501.265
  0
VERTEX
 8
PG-LP
 10
424361.931
 20
4216499.89
  0
VERTEX
 8
PG-LP
 10
424357.572
 20
4216497.215
  0
VERTEX
 8
PG-LP
 10
424354.437
 20
4216493.852
  0
VERTEX
 8
PG-LP
 10
424352.907
 20
4216490.643
  0
VERTEX
 8
PG-LP
 10
424352.918
 20
4216487.032
  0
VERTEX
 8
PG-LP
 10
424352.727
 20
4216477.572
  0
VERTEX
 8
PG-LP
 10
424352.393
 20
4216471.552
  0
VERTEX
 8
PG-LP
 10
424351.717
 20
4216467.526
  0
VERTEX
 8
PG-LP
 10
424348.454
 20
4216463.553
  0
VERTEX
 8
PG-LP
 10
424348.362
 20
4216462.289
  0
VERTEX
 8
PG-LP
 10
424337.702
 20
4216455.4205
  0
VERTEX
 8
PG-LP
 10
424332.512
 20
4216454.8105
  0
VERTEX
 8
PG-LP
 10
424328.792
 20
4216454.3805
  0
VERTEX
 8
PG-LP
 10
424322.252
 20
4216453.6105
  0
VERTEX
 8
PG-LP
 10
424316.532
 20
4216452.9405
  0
VERTEX
 8
PG-LP
 10
424312.342
 20
4216452.4805
  0
VERTEX
 8
PG-LP
 10
424305.702
 20
4216451.7405
  0
VERTEX
 8
PG-LP
 10
424297.332
 20
4216450.8205
  0
VERTEX
 8
PG-LP
 10
424293.922
 20
4216450.4305
  0
VERTEX
 8
PG-LP
 10
424287.142
 20
4216449.6705
  0
VERTEX
 8
PG-LP
 10
424281.7615
 20
4216449.0605
  0
VERTEX
 8
PG-LP
 10
424264.92
 20
4216443.22
  0
VERTEX
 8
PG-LP
 10
424238.69
 20
4216433.53
  0
VERTEX
 8
PG-LP
 10
424226.6
 20
4216429.46
  0
VERTEX
 8
PG-LP
 10
424238.41
 20
4216356.63
  0
VERTEX
 8
PG-LP
 10
424255.28
 20
4216215.12
  0
VERTEX
 8
PG-LP
 10
424296.0
 20
4216217.43
  0
VERTEX
 8
PG-LP
 10
424342.03
 20
4216221.92
  0
VERTEX
 8
PG-LP
 10
424353.04
 20
4216224.88
  0
VERTEX
 8
PG-LP
 10
424464.17
 20
4216235.8
  0
VERTEX
 8
PG-LP
 10
424523.98
 20
4216242.97
  0
VERTEX
 8
PG-LP
 10
424583.58
 20
4216248.51
  0
VERTEX
 8
PG-LP
 10
424586.3
 20
4216198.71
  0
VERTEX
 8
PG-LP
 10
424586.35
 20
4216195.4005
  0
VERTEX
 8
PG-LP
 10
424583.503
 20
4216195.782
  0
VERTEX
 8
PG-LP
 10
424560.53
 20
4216191.394
  0
VERTEX
 8
PG-LP
 10
424530.455
 20
4216185.649
  0
VERTEX
 8
PG-LP
 10
424519.313
 20
4216184.188
  0
VERTEX
 8
PG-LP
 10
424512.201
 20
4216182.389
  0
VERTEX
 8
PG-LP
 10
424506.118
 20
4216176.47
  0
VERTEX
 8
PG-LP
 10
424504.551
 20
4216171.336
  0
VERTEX
 8
PG-LP
 10
424503.733
 20
4216164.27
  0
VERTEX
 8
PG-LP
 10
424503.633
 20
4216155.251
  0
VERTEX
 8
PG-LP
 10
424503.335
 20
4216125.746
  0
VERTEX
 8
PG-LP
 10
424498.268
 20
4216110.547
  0
VERTEX
 8
PG-LP
 10
424487.539
 20
4216095.646
  0
VERTEX
 8
PG-LP
 10
424467.87
 20
4216081.937
  0
VERTEX
 8
PG-LP
 10
424447.27
 20
4216075.144
  0
VERTEX
 8
PG-LP
 10
424430.879
 20
4216076.336
  0
VERTEX
 8
PG-LP
 10
424411.841
 20
4216086.407
  0
VERTEX
 8
PG-LP
 10
424405.881
 20
4216094.156
  0
VERTEX
 8
PG-LP
 10
424401.113
 20
4216106.673
  0
VERTEX
 8
PG-LP
 10
424400.743
 20
4216122.431
  0
VERTEX
 8
PG-LP
 10
424402.599
 20
4216143.855
  0
VERTEX
 8
PG-LP
 10
424401.014
 20
4216151.953
  0
VERTEX
 8
PG-LP
 10
424397.022
 20
4216158.566
  0
VERTEX
 8
PG-LP
 10
424394.234
 20
4216161.662
  0
VERTEX
 8
PG-LP
 10
424391.278
 20
4216162.105
  0
VERTEX
 8
PG-LP
 10
424381.443
 20
4216161.509
  0
VERTEX
 8
PG-LP
 10
424340.912
 20
4216151.376
  0
VERTEX
 8
PG-LP
 10
424337.309
 20
4216149.201
  0
VERTEX
 8
PG-LP
 10
424334.557
 20
4216146.513
  0
VERTEX
 8
PG-LP
 10
424333.461
 20
4216143.032
  0
VERTEX
 8
PG-LP
 10
424332.933
 20
4216137.007
  0
VERTEX
 8
PG-LP
 10
424335.328
 20
4216123.777
  0
VERTEX
 8
PG-LP
 10
424337.714
 20
4216110.968
  0
VERTEX
 8
PG-LP
 10
424337.536
 20
4216105.583
  0
VERTEX
 8
PG-LP
 10
424336.885
 20
4216100.083
  0
VERTEX
 8
PG-LP
 10
424335.249
 20
4216095.199
  0
VERTEX
 8
PG-LP
 10
424333.308
 20
4216092.19
  0
VERTEX
 8
PG-LP
 10
424330.772
 20
4216088.872
  0
VERTEX
 8
PG-LP
 10
424326.321
 20
4216085.79
  0
VERTEX
 8
PG-LP
 10
424319.676
 20
4216083.429
  0
VERTEX
 8
PG-LP
 10
424309.968
 20
4216081.489
  0
VERTEX
 8
PG-LP
 10
424303.361
 20
4216078.808
  0
VERTEX
 8
PG-LP
 10
424300.529
 20
4216076.739
  0
VERTEX
 8
PG-LP
 10
424298.253
 20
4216073.862
  0
VERTEX
 8
PG-LP
 10
424296.679
 20
4216070.29
  0
VERTEX
 8
PG-LP
 10
424296.579
 20
4216060.615
  0
VERTEX
 8
PG-LP
 10
424296.847
 20
4216052.52
  0
VERTEX
 8
PG-LP
 10
424296.79
 20
4216043.282
  0
VERTEX
 8
PG-LP
 10
424294.304
 20
4216036.772
  0
VERTEX
 8
PG-LP
 10
424282.201
 20
4216025.015
  0
VERTEX
 8
PG-LP
 10
424265.324
 20
4216008.525
  0
VERTEX
 8
PG-LP
 10
424258.688
 20
4216001.839
  0
VERTEX
 8
PG-LP
 10
424254.301
 20
4215995.012
  0
VERTEX
 8
PG-LP
 10
424251.923
 20
4215990.461
  0
VERTEX
 8
PG-LP
 10
424249.736
 20
4215985.718
  0
VERTEX
 8
PG-LP
 10
424247.702
 20
4215979.842
  0
VERTEX
 8
PG-LP
 10
424235.853
 20
4215937.582
  0
VERTEX
 8
PG-LP
 10
424231.182
 20
4215916.566
  0
VERTEX
 8
PG-LP
 10
424294.069
 20
4215915.91
  0
VERTEX
 8
PG-LP
 10
424306.165
 20
4215869.154
  0
VERTEX
 8
PG-LP
 10
424267.6545
 20
4215875.618
  0
VERTEX
 8
PG-LP
 10
424265.541
 20
4215875.9985
  0
VERTEX
 8
PG-LP
 10
424260.6155
 20
4215876.8855
  0
VERTEX
 8
PG-LP
 10
424220.602
 20
4215884.092
  0
VERTEX
 8
PG-LP
 10
424233.922
 20
4215944.25
  0
VERTEX
 8
PG-LP
 10
424246.873
 20
4215986.601
  0
VERTEX
 8
PG-LP
 10
424253.517
 20
4215999.126
  0
VERTEX
 8
PG-LP
 10
424262.231
 20
4216010.63
  0
VERTEX
 8
PG-LP
 10
424274.453
 20
4216023.375
  0
VERTEX
 8
PG-LP
 10
424289.425
 20
4216036.152
  0
VERTEX
 8
PG-LP
 10
424292.17
 20
4216039.608
  0
VERTEX
 8
PG-LP
 10
424293.142
 20
4216043.249
  0
VERTEX
 8
PG-LP
 10
424292.969
 20
4216069.78
  0
VERTEX
 8
PG-LP
 10
424294.127
 20
4216073.741
  0
VERTEX
 8
PG-LP
 10
424295.511
 20
4216076.626
  0
VERTEX
 8
PG-LP
 10
424297.986
 20
4216079.321
  0
VERTEX
 8
PG-LP
 10
424301.878
 20
4216081.922
  0
VERTEX
 8
PG-LP
 10
424306.636
 20
4216083.985
  0
VERTEX
 8
PG-LP
 10
424317.708
 20
4216085.741
  0
VERTEX
 8
PG-LP
 10
424322.413
 20
4216087.14
  0
VERTEX
 8
PG-LP
 10
424235.68
 20
4216115.869
  0
VERTEX
 8
PG-LP
 10
424216.338
 20
4216082.682
  0
VERTEX
 8
PG-LP
 10
424206.801
 20
4216014.137
  0
VERTEX
 8
PG-LP
 10
424211.817
 20
4215885.674
  0
VERTEX
 8
PG-LP
 10
424154.934
 20
4215895.9185
  0
VERTEX
 8
PG-LP
 10
424149.434
 20
4215896.4985
  0
VERTEX
 8
PG-LP
 10
424105.494
 20
4215910.4885
  0
VERTEX
 8
PG-LP
 10
424082.855
 20
4215916.818
  0
VERTEX
 8
PG-LP
 10
424146.954
 20
4215999.406
  0
VERTEX
 8
PG-LP
 10
424146.48
 20
4215999.436
  0
VERTEX
 8
PG-LP
 10
424140.515
 20
4215998.536
  0
VERTEX
 8
PG-LP
 10
424130.872
 20
4215996.127
  0
VERTEX
 8
PG-LP
 10
424111.196
 20
4215990.211
  0
VERTEX
 8
PG-LP
 10
424105.702
 20
4215990.247
  0
VERTEX
 8
PG-LP
 10
424101.003
 20
4215991.39
  0
VERTEX
 8
PG-LP
 10
424099.207
 20
4215992.678
  0
VERTEX
 8
PG-LP
 10
424095.667
 20
4215997.627
  0
VERTEX
 8
PG-LP
 10
424093.04
 20
4216003.245
  0
VERTEX
 8
PG-LP
 10
424090.934
 20
4216009.108
  0
VERTEX
 8
PG-LP
 10
424088.949
 20
4216017.492
  0
VERTEX
 8
PG-LP
 10
424088.079
 20
4216023.497
  0
VERTEX
 8
PG-LP
 10
424088.854
 20
4216028.203
  0
VERTEX
 8
PG-LP
 10
424089.839
 20
4216031.536
  0
VERTEX
 8
PG-LP
 10
424091.684
 20
4216034.255
  0
VERTEX
 8
PG-LP
 10
424095.325
 20
4216037.546
  0
VERTEX
 8
PG-LP
 10
424106.908
 20
4216043.302
  0
VERTEX
 8
PG-LP
 10
424115.901
 20
4216049.242
  0
VERTEX
 8
PG-LP
 10
424126.228
 20
4216059.496
  0
VERTEX
 8
PG-LP
 10
424134.216
 20
4216071.962
  0
VERTEX
 8
PG-LP
 10
424145.289
 20
4216086.842
  0
VERTEX
 8
PG-LP
 10
424158.597
 20
4216100.836
  0
VERTEX
 8
PG-LP
 10
424168.248
 20
4216112.658
  0
VERTEX
 8
PG-LP
 10
424180.353
 20
4216133.916
  0
VERTEX
 8
PG-LP
 10
424186.115
 20
4216145.582
  0
VERTEX
 8
PG-LP
 10
424186.828
 20
4216148.959
  0
VERTEX
 8
PG-LP
 10
424186.598
 20
4216151.949
  0
VERTEX
 8
PG-LP
 10
424185.079
 20
4216154.111
  0
VERTEX
 8
PG-LP
 10
424182.611
 20
4216155.401
  0
VERTEX
 8
PG-LP
 10
424178.542
 20
4216157.378
  0
VERTEX
 8
PG-LP
 10
424172.67
 20
4216157.525
  0
VERTEX
 8
PG-LP
 10
424160.365
 20
4216156.379
  0
VERTEX
 8
PG-LP
 10
424147.868
 20
4216154.48
  0
VERTEX
 8
PG-LP
 10
424133.265
 20
4216154.182
  0
VERTEX
 8
PG-LP
 10
424111.206
 20
4216156.628
  0
VERTEX
 8
PG-LP
 10
424099.331
 20
4216157.126
  0
VERTEX
 8
PG-LP
 10
424084.389
 20
4216156.566
  0
VERTEX
 8
PG-LP
 10
424078.061
 20
4216157.354
  0
VERTEX
 8
PG-LP
 10
424065.8
 20
4216160.081
  0
VERTEX
 8
PG-LP
 10
424057.29
 20
4216163.978
  0
VERTEX
 8
PG-LP
 10
424051.478
 20
4216165.871
  0
VERTEX
 8
PG-LP
 10
424047.919
 20
4216166.339
  0
VERTEX
 8
PG-LP
 10
424043.185
 20
4216166.247
  0
VERTEX
 8
PG-LP
 10
424037.301
 20
4216163.719
  0
VERTEX
 8
PG-LP
 10
424032.263
 20
4216157.273
  0
VERTEX
 8
PG-LP
 10
424029.098
 20
4216145.6
  0
VERTEX
 8
PG-LP
 10
424025.603
 20
4216127.907
  0
VERTEX
 8
PG-LP
 10
424021.751
 20
4216110.524
  0
VERTEX
 8
PG-LP
 10
424018.686
 20
4216102.188
  0
VERTEX
 8
PG-LP
 10
424012.239
 20
4216094.908
  0
VERTEX
 8
PG-LP
 10
424008.537
 20
4216091.307
  0
VERTEX
 8
PG-LP
 10
424004.023
 20
4216089.895
  0
VERTEX
 8
PG-LP
 10
423998.206
 20
4216090.73
  0
VERTEX
 8
PG-LP
 10
423994.073
 20
4216092.433
  0
VERTEX
 8
PG-LP
 10
423982.748
 20
4216105.546
  0
VERTEX
 8
PG-LP
 10
423972.019
 20
4216112.699
  0
VERTEX
 8
PG-LP
 10
423961.918
 20
4216127.032
  0
VERTEX
 8
PG-LP
 10
423956.602
 20
4216132.158
  0
VERTEX
 8
PG-LP
 10
423950.263
 20
4216134.157
  0
VERTEX
 8
PG-LP
 10
423944.556
 20
4216133.121
  0
VERTEX
 8
PG-LP
 10
423940.429
 20
4216131.176
  0
VERTEX
 8
PG-LP
 10
423936.043
 20
4216125.898
  0
VERTEX
 8
PG-LP
 10
423933.574
 20
4216120.448
  0
VERTEX
 8
PG-LP
 10
423930.534
 20
4216096.019
  0
VERTEX
 8
PG-LP
 10
423930.422
 20
4216089.242
  0
VERTEX
 8
PG-LP
 10
423931.972
 20
4216080.207
  0
VERTEX
 8
PG-LP
 10
423934.814
 20
4216073.753
  0
VERTEX
 8
PG-LP
 10
423943.872
 20
4216050.933
  0
VERTEX
 8
PG-LP
 10
423953.026
 20
4216028.511
  0
VERTEX
 8
PG-LP
 10
423957.107
 20
4216010.438
  0
VERTEX
 8
PG-LP
 10
423959.502
 20
4215990.807
  0
VERTEX
 8
PG-LP
 10
423964.271
 20
4215974.416
  0
VERTEX
 8
PG-LP
 10
423975.502
 20
4215944.6055
  0
VERTEX
 8
PG-LP
 10
423857.122
 20
4215979.444
  0
VERTEX
 8
PG-LP
 10
423842.021
 20
4215983.892
  0
VERTEX
 8
PG-LP
 10
423818.0405
 20
4215990.9555
  0
VERTEX
 8
PG-LP
 10
423817.7275
 20
4215991.0475
  0
VERTEX
 8
PG-LP
 10
423811.44
 20
4215992.8995
  0
VERTEX
 8
PG-LP
 10
423803.917
 20
4215995.1155
  0
VERTEX
 8
PG-LP
 10
423738.0
 20
4216014.531
  0
VERTEX
 8
PG-LP
 10
423725.729
 20
4216018.1355
  0
VERTEX
 8
PG-LP
 10
423717.473
 20
4216020.5785
  0
VERTEX
 8
PG-LP
 10
423716.993
 20
4216020.7185
  0
VERTEX
 8
PG-LP
 10
423670.307
 20
4216034.045
  0
VERTEX
 8
PG-LP
 10
423651.651
 20
4216039.343
  0
VERTEX
 8
PG-LP
 10
423643.502
 20
4216041.6965
  0
VERTEX
 8
PG-LP
 10
423623.589
 20
4216047.381
  0
VERTEX
 8
PG-LP
 10
423619.963
 20
4216048.416
  0
VERTEX
 8
PG-LP
 10
423618.2505
 20
4216048.905
  0
VERTEX
 8
PG-LP
 10
423611.905
 20
4216050.7165
  0
VERTEX
 8
PG-LP
 10
423608.91
 20
4216051.571
  0
VERTEX
 8
PG-LP
 10
423604.0335
 20
4216052.963
  0
VERTEX
 8
PG-LP
 10
423596.4455
 20
4216055.1295
  0
VERTEX
 8
PG-LP
 10
423588.085
 20
4216057.516
  0
VERTEX
 8
PG-LP
 10
423580.2375
 20
4216059.756
  0
VERTEX
 8
PG-LP
 10
423572.1795
 20
4216062.056
  0
VERTEX
 8
PG-LP
 10
423568.8425
 20
4216063.0085
  0
VERTEX
 8
PG-LP
 10
423563.971
 20
4216064.3845
  0
VERTEX
 8
PG-LP
 10
423543.23
 20
4216070.2425
  0
VERTEX
 8
PG-LP
 10
423526.8665
 20
4216074.8645
  0
VERTEX
 8
PG-LP
 10
423470.772
 20
4216090.7085
  0
VERTEX
 8
PG-LP
 10
423467.0285
 20
4216091.7655
  0
VERTEX
 8
PG-LP
 10
423469.09
 20
4216129.84
  0
VERTEX
 8
PG-LP
 10
423473.45
 20
4216143.86
  0
VERTEX
 8
PG-LP
 10
423476.75
 20
4216156.71
  0
VERTEX
 8
PG-LP
 10
423479.2
 20
4216167.82
  0
VERTEX
 8
PG-LP
 10
423479.8
 20
4216180.81
  0
VERTEX
 8
PG-LP
 10
423488.78
 20
4216185.53
  0
VERTEX
 8
PG-LP
 10
423494.82
 20
4216196.86
  0
VERTEX
 8
PG-LP
 10
423505.27
 20
4216215.0
  0
VERTEX
 8
PG-LP
 10
423519.2
 20
4216238.21
  0
VERTEX
 8
PG-LP
 10
423536.87
 20
4216264.83
  0
VERTEX
 8
PG-LP
 10
423552.07
 20
4216282.93
  0
VERTEX
 8
PG-LP
 10
423575.59
 20
4216295.83
  0
VERTEX
 8
PG-LP
 10
423585.55
 20
4216303.35
  0
VERTEX
 8
PG-LP
 10
423610.68
 20
4216324.43
  0
VERTEX
 8
PG-LP
 10
423620.18
 20
4216334.86
  0
VERTEX
 8
PG-LP
 10
423636.21
 20
4216350.76
  0
VERTEX
 8
PG-LP
 10
423649.55
 20
4216361.93
  0
VERTEX
 8
PG-LP
 10
423601.17
 20
4216407.24
  0
VERTEX
 8
PG-LP
 10
423593.55
 20
4216397.35
  0
VERTEX
 8
PG-LP
 10
423549.12
 20
4216438.53
  0
VERTEX
 8
PG-LP
 10
423545.39
 20
4216441.96
  0
VERTEX
 8
PG-LP
 10
423537.64
 20
4216455.85
  0
VERTEX
 8
PG-LP
 10
423528.26
 20
4216462.87
  0
VERTEX
 8
PG-LP
 10
423517.85
 20
4216468.82
  0
VERTEX
 8
PG-LP
 10
423500.31
 20
4216475.18
  0
VERTEX
 8
PG-LP
 10
423469.04
 20
4216489.29
  0
VERTEX
 8
PG-LP
 10
423448.11
 20
4216506.72
  0
VERTEX
 8
PG-LP
 10
423429.38
 20
4216524.8
  0
VERTEX
 8
PG-LP
 10
423415.62
 20
4216541.46
  0
VERTEX
 8
PG-LP
 10
423405.5
 20
4216548.8
  0
VERTEX
 8
PG-LP
 10
423396.91
 20
4216552.41
  0
VERTEX
 8
PG-LP
 10
423385.93
 20
4216555.9
  0
VERTEX
 8
PG-LP
 10
423371.09
 20
4216557.8
  0
VERTEX
 8
PG-LP
 10
423357.22
 20
4216558.99
  0
VERTEX
 8
PG-LP
 10
423347.95
 20
4216561.3
  0
VERTEX
 8
PG-LP
 10
423340.82
 20
4216566.41
  0
VERTEX
 8
PG-LP
 10
423336.2
 20
4216574.53
  0
VERTEX
 8
PG-LP
 10
423329.22
 20
4216595.79
  0
VERTEX
 8
PG-LP
 10
423324.0
 20
4216615.77
  0
VERTEX
 8
PG-LP
 10
423323.06
 20
4216628.2
  0
VERTEX
 8
PG-LP
 10
423324.7
 20
4216638.35
  0
VERTEX
 8
PG-LP
 10
423327.48
 20
4216646.4
  0
VERTEX
 8
PG-LP
 10
423284.37
 20
4216726.57
  0
VERTEX
 8
PG-LP
 10
423276.71
 20
4216723.58
  0
VERTEX
 8
PG-LP
 10
423267.65
 20
4216722.38
  0
VERTEX
 8
PG-LP
 10
423258.6
 20
4216723.75
  0
VERTEX
 8
PG-LP
 10
423253.33
 20
4216726.14
  0
VERTEX
 8
PG-LP
 10
423248.09
 20
4216731.58
  0
VERTEX
 8
PG-LP
 10
423244.04
 20
4216737.94
  0
VERTEX
 8
PG-LP
 10
423240.894
 20
4216746.953
  0
VERTEX
 8
PG-LP
 10
423240.937
 20
4216747.0445
  0
VERTEX
 8
PG-LP
 10
423242.919
 20
4216751.2605
  0
VERTEX
 8
PG-LP
 10
423243.977
 20
4216754.186
  0
VERTEX
 8
PG-LP
 10
423244.9955
 20
4216757.0015
  0
VERTEX
 8
PG-LP
 10
423250.65
 20
4216736.68
  0
VERTEX
 8
PG-LP
 10
423255.35
 20
4216730.57
  0
VERTEX
 8
PG-LP
 10
423263.36
 20
4216727.61
  0
VERTEX
 8
PG-LP
 10
423271.2
 20
4216727.59
  0
VERTEX
 8
PG-LP
 10
423281.33
 20
4216730.8
  0
VERTEX
 8
PG-LP
 10
423288.48
 20
4216735.18
  0
VERTEX
 8
PG-LP
 10
423295.88
 20
4216741.14
  0
VERTEX
 8
PG-LP
 10
423329.54
 20
4216776.51
  0
VERTEX
 8
PG-LP
 10
423342.2
 20
4216791.43
  0
VERTEX
 8
PG-LP
 10
423360.98
 20
4216819.15
  0
VERTEX
 8
PG-LP
 10
423369.78
 20
4216829.14
  0
VERTEX
 8
PG-LP
 10
423390.9
 20
4216847.52
  0
VERTEX
 8
PG-LP
 10
423408.17
 20
4216857.32
  0
VERTEX
 8
PG-LP
 10
423431.58
 20
4216868.77
  0
VERTEX
 8
PG-LP
 10
423453.84
 20
4216879.84
  0
VERTEX
 8
PG-LP
 10
423463.73
 20
4216886.0
  0
VERTEX
 8
PG-LP
 10
423469.51
 20
4216890.97
  0
VERTEX
 8
PG-LP
 10
423479.3335
 20
4216901.764
  0
VERTEX
 8
PG-LP
 10
423485.6725
 20
4216905.8075
  0
VERTEX
 8
PG-LP
 10
423490.093
 20
4216909.3485
  0
VERTEX
 8
PG-LP
 10
423500.7255
 20
4216925.2225
  0
VERTEX
 8
PG-LP
 10
423509.227
 20
4216937.9165
  0
VERTEX
 8
PG-LP
 10
423529.6235
 20
4216968.3665
  0
VERTEX
 8
PG-LP
 10
423534.2535
 20
4216970.6065
  0
VERTEX
 8
PG-LP
 10
423534.984
 20
4216971.1615
  0
VERTEX
 8
PG-LP
 10
423541.244
 20
4216975.9365
  0
VERTEX
 8
PG-LP
 10
423543.89
 20
4216977.313
  0
VERTEX
 8
PG-LP
 10
423549.314
 20
4216980.136
  0
VERTEX
 8
PG-LP
 10
423556.554
 20
4216982.536
  0
VERTEX
 8
PG-LP
 10
423564.404
 20
4216985.436
  0
VERTEX
 8
PG-LP
 10
423573.034
 20
4216987.426
  0
VERTEX
 8
PG-LP
 10
423583.064
 20
4216988.386
  0
VERTEX
 8
PG-LP
 10
423592.264
 20
4216987.746
  0
VERTEX
 8
PG-LP
 10
423601.1545
 20
4216986.816
  0
VERTEX
 8
PG-LP
 10
423612.2445
 20
4216985.456
  0
VERTEX
 8
PG-LP
 10
423628.2045
 20
4216980.906
  0
VERTEX
 8
PG-LP
 10
423653.6045
 20
4216972.506
  0
VERTEX
 8
PG-LP
 10
423661.8745
 20
4216970.076
  0
VERTEX
 8
PG-LP
 10
423669.5045
 20
4216971.276
  0
VERTEX
 8
PG-LP
 10
423716.755
 20
4216985.5555
  0
VERTEX
 8
PG-LP
 10
423747.5255
 20
4216995.4555
  0
VERTEX
 8
PG-LP
 10
423754.0755
 20
4216998.375
  0
VERTEX
 8
PG-LP
 10
423758.1955
 20
4216999.025
  0
VERTEX
 8
PG-LP
 10
423790.2205
 20
4216991.693
  0
VERTEX
 8
PG-LP
 10
423793.433
 20
4216990.9575
  0
VERTEX
 8
PG-LP
 10
423848.0855
 20
4216978.445
  0
VERTEX
 8
PG-LP
 10
423865.2355
 20
4216973.485
  0
VERTEX
 8
PG-LP
 10
423889.2255
 20
4216964.805
  0
VERTEX
 8
PG-LP
 10
423901.676
 20
4216960.005
  0
VERTEX
 8
PG-LP
 10
423922.976
 20
4216958.795
  0
VERTEX
 8
PG-LP
 10
423924.926
 20
4216958.995
  0
VERTEX
 8
PG-LP
 10
423944.436
 20
4216961.025
  0
VERTEX
 8
PG-LP
 10
423951.076
 20
4216960.325
  0
VERTEX
 8
PG-LP
 10
423950.756
 20
4216959.725
  0
VERTEX
 8
PG-LP
 10
423948.726
 20
4216955.935
  0
VERTEX
 8
PG-LP
 10
423946.716
 20
4216952.665
  0
VERTEX
 8
PG-LP
 10
423945.076
 20
4216950.005
  0
VERTEX
 8
PG-LP
 10
423937.9155
 20
4216937.7955
  0
VERTEX
 8
PG-LP
 10
423930.7655
 20
4216925.9955
  0
VERTEX
 8
PG-LP
 10
423923.9955
 20
4216914.926
  0
VERTEX
 8
PG-LP
 10
423918.795
 20
4216900.686
  0
VERTEX
 8
PG-LP
 10
423913.875
 20
4216887.666
  0
VERTEX
 8
PG-LP
 10
423909.4645
 20
4216875.4965
  0
VERTEX
 8
PG-LP
 10
423906.7845
 20
4216868.1165
  0
VERTEX
 8
PG-LP
 10
423899.8645
 20
4216848.4365
  0
VERTEX
 8
PG-LP
 10
423888.564
 20
4216818.597
  0
VERTEX
 8
PG-LP
 10
423887.454
 20
4216815.667
  0
VERTEX
 8
PG-LP
 10
423879.6835
 20
4216793.4975
  0
VERTEX
 8
PG-LP
 10
423879.2135
 20
4216792.1675
  0
VERTEX
 8
PG-LP
 10
423877.3635
 20
4216787.5875
  0
VERTEX
 8
PG-LP
 10
423875.5935
 20
4216782.7975
  0
VERTEX
 8
PG-LP
 10
423872.9235
 20
4216777.338
  0
VERTEX
 8
PG-LP
 10
423870.193
 20
4216771.638
  0
VERTEX
 8
PG-LP
 10
423867.773
 20
4216766.348
  0
VERTEX
 8
PG-LP
 10
423867.523
 20
4216765.878
  0
VERTEX
 8
PG-LP
 10
423865.163
 20
4216761.408
  0
VERTEX
 8
PG-LP
 10
423862.673
 20
4216756.408
  0
VERTEX
 8
PG-LP
 10
423860.203
 20
4216752.078
  0
VERTEX
 8
PG-LP
 10
423857.793
 20
4216749.268
  0
VERTEX
 8
PG-LP
 10
423854.993
 20
4216746.558
  0
VERTEX
 8
PG-LP
 10
423852.0125
 20
4216739.4385
  0
VERTEX
 8
PG-LP
 10
423852.6725
 20
4216739.1385
  0
VERTEX
 8
PG-LP
 10
423853.5025
 20
4216738.4885
  0
VERTEX
 8
PG-LP
 10
423854.0725
 20
4216737.1985
  0
VERTEX
 8
PG-LP
 10
423854.2125
 20
4216736.0185
  0
VERTEX
 8
PG-LP
 10
423854.1125
 20
4216734.5485
  0
VERTEX
 8
PG-LP
 10
423853.8025
 20
4216733.6485
  0
VERTEX
 8
PG-LP
 10
423853.7425
 20
4216733.5385
  0
VERTEX
 8
PG-LP
 10
423860.5225
 20
4216731.3985
  0
VERTEX
 8
PG-LP
 10
423860.7925
 20
4216732.4685
  0
VERTEX
 8
PG-LP
 10
423861.3025
 20
4216733.9385
  0
VERTEX
 8
PG-LP
 10
423862.0025
 20
4216734.7585
  0
VERTEX
 8
PG-LP
 10
423863.0225
 20
4216735.3585
  0
VERTEX
 8
PG-LP
 10
423864.2125
 20
4216735.5985
  0
VERTEX
 8
PG-LP
 10
423865.1625
 20
4216735.5285
  0
VERTEX
 8
PG-LP
 10
423865.8425
 20
4216735.3285
  0
VERTEX
 8
PG-LP
 10
423865.2925
 20
4216732.9985
  0
VERTEX
 8
PG-LP
 10
423865.1325
 20
4216732.3385
  0
VERTEX
 8
PG-LP
 10
423864.5025
 20
4216729.1585
  0
VERTEX
 8
PG-LP
 10
423864.0325
 20
4216725.3185
  0
VERTEX
 8
PG-LP
 10
423863.6525
 20
4216721.1585
  0
VERTEX
 8
PG-LP
 10
423863.4425
 20
4216715.4385
  0
VERTEX
 8
PG-LP
 10
423863.2225
 20
4216709.0985
  0
VERTEX
 8
PG-LP
 10
423863.1325
 20
4216705.309
  0
VERTEX
 8
PG-LP
 10
423865.3925
 20
4216705.079
  0
VERTEX
 8
PG-LP
 10
423870.2925
 20
4216704.569
  0
VERTEX
 8
PG-LP
 10
423873.0125
 20
4216704.2885
  0
VERTEX
 8
PG-LP
 10
423874.6925
 20
4216704.1185
  0
VERTEX
 8
PG-LP
 10
423877.3825
 20
4216704.0085
  0
VERTEX
 8
PG-LP
 10
423881.0925
 20
4216703.8585
  0
VERTEX
 8
PG-LP
 10
423884.3425
 20
4216703.7385
  0
VERTEX
 8
PG-LP
 10
423884.4825
 20
4216703.7285
  0
VERTEX
 8
PG-LP
 10
423888.5625
 20
4216703.5385
  0
VERTEX
 8
PG-LP
 10
423888.7125
 20
4216703.5285
  0
VERTEX
 8
PG-LP
 10
423893.0925
 20
4216703.3285
  0
VERTEX
 8
PG-LP
 10
423895.4225
 20
4216703.2185
  0
VERTEX
 8
PG-LP
 10
423895.5925
 20
4216703.2085
  0
VERTEX
 8
PG-LP
 10
423898.6325
 20
4216703.0285
  0
VERTEX
 8
PG-LP
 10
423899.7725
 20
4216702.9585
  0
VERTEX
 8
PG-LP
 10
423901.1225
 20
4216702.8785
  0
VERTEX
 8
PG-LP
 10
423904.1825
 20
4216702.6985
  0
VERTEX
 8
PG-LP
 10
423904.7925
 20
4216702.6585
  0
VERTEX
 8
PG-LP
 10
423906.4725
 20
4216702.6285
  0
VERTEX
 8
PG-LP
 10
423908.0925
 20
4216702.5885
  0
VERTEX
 8
PG-LP
 10
423910.8525
 20
4216702.5385
  0
VERTEX
 8
PG-LP
 10
423910.8425
 20
4216697.7985
  0
VERTEX
 8
PG-LP
 10
423910.8225
 20
4216684.929
  0
VERTEX
 8
PG-LP
 10
423910.8125
 20
4216681.699
  0
VERTEX
 8
PG-LP
 10
423910.682
 20
4216674.749
  0
VERTEX
 8
PG-LP
 10
423910.442
 20
4216661.329
  0
VERTEX
 8
PG-LP
 10
423910.422
 20
4216660.489
  0
VERTEX
 8
PG-LP
 10
423910.412
 20
4216648.0995
  0
VERTEX
 8
PG-LP
 10
423910.412
 20
4216640.5795
  0
VERTEX
 8
PG-LP
 10
423910.412
 20
4216639.7495
  0
VERTEX
 8
PG-LP
 10
423910.0815
 20
4216631.4095
  0
VERTEX
 8
PG-LP
 10
423920.182
 20
4216632.1095
  0
VERTEX
 8
PG-LP
 10
423920.496
 20
4216630.439
  0
VERTEX
 8
PG-LP
 10
423920.84
 20
4216628.61
  0
VERTEX
 8
PG-LP
 10
423922.2
 20
4216616.87
  0
VERTEX
 8
PG-LP
 10
423923.85
 20
4216606.24
  0
VERTEX
 8
PG-LP
 10
423926.68
 20
4216587.59
  0
VERTEX
 8
PG-LP
 10
423928.46
 20
4216578.73
  0
VERTEX
 8
PG-LP
 10
423927.5685
 20
4216578.6195
  0
VERTEX
 8
PG-LP
 10
423927.957
 20
4216575.931
  0
VERTEX
 8
PG-LP
 10
423931.882
 20
4216558.459
  0
VERTEX
 8
PG-LP
 10
423935.052
 20
4216543.678
  0
VERTEX
 8
PG-LP
 10
423938.221
 20
4216531.31
  0
VERTEX
 8
PG-LP
 10
423938.617
 20
4216528.496
  0
VERTEX
 8
PG-LP
 10
423941.106
 20
4216510.13
  0
VERTEX
 8
PG-LP
 10
423942.69
 20
4216493.691
  0
VERTEX
 8
PG-LP
 10
423943.369
 20
4216482.078
  0
VERTEX
 8
PG-LP
 10
423943.934
 20
4216469.066
  0
VERTEX
 8
PG-LP
 10
423944.027
 20
4216445.581
  0
VERTEX
 8
PG-LP
 10
423944.487
 20
4216425.966
  0
VERTEX
 8
PG-LP
 10
423943.211
 20
4216411.151
  0
VERTEX
 8
PG-LP
 10
423942.485
 20
4216407.764
  0
VERTEX
 8
PG-LP
 10
423941.194
 20
4216399.297
  0
VERTEX
 8
PG-LP
 10
423941.32
 20
4216394.989
  0
VERTEX
 8
PG-LP
 10
423941.263
 20
4216390.932
  0
VERTEX
 8
PG-LP
 10
423941.606
 20
4216387.675
  0
VERTEX
 8
PG-LP
 10
423943.378
 20
4216381.638
  0
VERTEX
 8
PG-LP
 10
423945.468
 20
4216374.552
  0
VERTEX
 8
PG-LP
 10
423946.48
 20
4216370.212
  0
VERTEX
 8
PG-LP
 10
423948.234
 20
4216361.187
  0
VERTEX
 8
PG-LP
 10
423951.534
 20
4216345.6445
  0
VERTEX
 8
PG-LP
 10
423959.314
 20
4216342.7405
  0
VERTEX
 8
PG-LP
 10
424014.969
 20
4216343.619
  0
VERTEX
 8
PG-LP
 10
424022.568
 20
4216343.633
  0
VERTEX
 8
PG-LP
 10
424028.639
 20
4216400.552
  0
VERTEX
 8
PG-LP
 10
424028.55
 20
4216400.584
  0
VERTEX
 8
PG-LP
 10
424025.655
 20
4216401.935
  0
VERTEX
 8
PG-LP
 10
424023.911
 20
4216402.283
  0
VERTEX
 8
PG-LP
 10
424021.287
 20
4216402.832
  0
VERTEX
 8
PG-LP
 10
424018.572
 20
4216403.453
  0
VERTEX
 8
PG-LP
 10
424020.734
 20
4216408.121
  0
VERTEX
 8
PG-LP
 10
424026.063
 20
4216420.03
  0
VERTEX
 8
PG-LP
 10
424027.269
 20
4216426.389
  0
VERTEX
 8
PG-LP
 10
424027.581
 20
4216441.381
  0
VERTEX
 8
PG-LP
 10
424027.295
 20
4216469.484
  0
VERTEX
 8
PG-LP
 10
424027.114
 20
4216481.803
  0
VERTEX
 8
PG-LP
 10
424028.224
 20
4216487.318
  0
VERTEX
 8
PG-LP
 10
424031.186
 20
4216496.569
  0
VERTEX
 8
PG-LP
 10
424034.082
 20
4216506.906
  0
VERTEX
 8
PG-LP
 10
424035.846
 20
4216512.398
  0
VERTEX
 8
PG-LP
 10
424037.786
 20
4216516.751
  0
VERTEX
 8
PG-LP
 10
424042.229
 20
4216526.423
  0
VERTEX
 8
PG-LP
 10
424045.587
 20
4216529.132
  0
VERTEX
 8
PG-LP
 10
424049.227
 20
4216531.031
  0
VERTEX
 8
PG-LP
 10
424053.445
 20
4216532.08
  0
VERTEX
 8
PG-LP
 10
424057.841
 20
4216532.324
  0
VERTEX
 8
PG-LP
 10
424061.83
 20
4216532.08
  0
VERTEX
 8
PG-LP
 10
424066.064
 20
4216531.103
  0
VERTEX
 8
PG-LP
 10
424069.401
 20
4216530.371
  0
VERTEX
 8
PG-LP
 10
424079.866
 20
4216525.012
  0
VERTEX
 8
PG-LP
 10
424093.324
 20
4216515.335
  0
VERTEX
 8
PG-LP
 10
424097.509
 20
4216514.269
  0
VERTEX
 8
PG-LP
 10
424100.053
 20
4216514.679
  0
VERTEX
 8
PG-LP
 10
424088.428
 20
4216526.472
  0
VERTEX
 8
PG-LP
 10
424075.906
 20
4216540.918
  0
VERTEX
 8
PG-LP
 10
424056.074
 20
4216563.567
  0
VERTEX
 8
PG-LP
 10
424043.452
 20
4216578.721
  0
VERTEX
 8
PG-LP
 10
424037.049
 20
4216586.671
  0
VERTEX
 8
PG-LP
 10
424033.451
 20
4216592.035
  0
VERTEX
 8
PG-LP
 10
424031.743
 20
4216596.241
  0
VERTEX
 8
PG-LP
 10
424029.321
 20
4216603.438
  0
VERTEX
 8
PG-LP
 10
424029.026
 20
4216604.793
  0
VERTEX
 8
PG-LP
 10
424028.0
 20
4216604.31
  0
VERTEX
 8
PG-LP
 10
424027.9375
 20
4216604.613
  0
VERTEX
 8
PG-LP
 10
424021.67
 20
4216635.03
  0
VERTEX
 8
PG-LP
 10
424021.02
 20
4216638.55
  0
VERTEX
 8
PG-LP
 10
424020.993
 20
4216638.839
  0
VERTEX
 8
PG-LP
 10
424020.08
 20
4216648.68
  0
VERTEX
 8
PG-LP
 10
424018.88
 20
4216663.39
  0
VERTEX
 8
PG-LP
 10
424016.42
 20
4216686.68
  0
VERTEX
 8
PG-LP
 10
424014.88
 20
4216686.51
  0
VERTEX
 8
PG-LP
 10
424013.423
 20
4216686.4285
  0
VERTEX
 8
PG-LP
 10
424007.4435
 20
4216742.508
  0
VERTEX
 8
PG-LP
 10
424008.5335
 20
4216742.498
  0
VERTEX
 8
PG-LP
 10
424004.4445
 20
4216793.497
  0
VERTEX
 8
PG-LP
 10
424003.6245
 20
4216803.747
  0
VERTEX
 8
PG-LP
 10
424008.6245
 20
4216804.257
  0
VERTEX
 8
PG-LP
 10
424011.5445
 20
4216804.557
  0
VERTEX
 8
PG-LP
 10
424014.7045
 20
4216804.877
  0
VERTEX
 8
PG-LP
 10
424014.8845
 20
4216802.157
  0
VERTEX
 8
PG-LP
 10
424015.6345
 20
4216793.497
  0
VERTEX
 8
PG-LP
 10
424016.454
 20
4216784.097
  0
VERTEX
 8
PG-LP
 10
424017.484
 20
4216767.6175
  0
VERTEX
 8
PG-LP
 10
424017.484
 20
4216766.1775
  0
VERTEX
 8
PG-LP
 10
424017.484
 20
4216761.8275
  0
VERTEX
 8
PG-LP
 10
424018.224
 20
4216757.4075
  0
VERTEX
 8
PG-LP
 10
424019.254
 20
4216744.4475
  0
VERTEX
 8
PG-LP
 10
424020.6535
 20
4216729.558
  0
VERTEX
 8
PG-LP
 10
424022.8135
 20
4216707.258
  0
VERTEX
 8
PG-LP
 10
424023.963
 20
4216691.7585
  0
VERTEX
 8
PG-LP
 10
424025.211
 20
4216675.6
  0
VERTEX
 8
PG-LP
 10
424026.838
 20
4216654.5255
  0
VERTEX
 8
PG-LP
 10
424030.3085
 20
4216629.7235
  0
VERTEX
 8
PG-LP
 10
424033.5575
 20
4216606.499
  0
VERTEX
 8
PG-LP
 10
424035.066
 20
4216603.217
  0
VERTEX
 8
PG-LP
 10
424036.9595
 20
4216599.097
  0
VERTEX
 8
PG-LP
 10
424039.2965
 20
4216594.0125
  0
VERTEX
 8
PG-LP
 10
424046.2705
 20
4216583.4935
  0
VERTEX
 8
PG-LP
 10
424050.099
 20
4216578.74
  0
VERTEX
 8
PG-LP
 10
424050.665
 20
4216578.1975
  0
VERTEX
 8
PG-LP
 10
424120.4215
 20
4216511.4005
  0
VERTEX
 8
PG-LP
 10
424121.3515
 20
4216510.3205
  0
VERTEX
 8
PG-LP
 10
424127.9915
 20
4216510.9505
  0
VERTEX
 8
PG-LP
 10
424134.5415
 20
4216511.6105
  0
VERTEX
 8
PG-LP
 10
424138.3115
 20
4216511.9905
  0
VERTEX
 8
PG-LP
 10
424143.7615
 20
4216512.8305
  0
VERTEX
 8
PG-LP
 10
424149.5615
 20
4216514.2305
  0
VERTEX
 8
PG-LP
 10
424152.4815
 20
4216515.07
  0
VERTEX
 8
PG-LP
 10
424155.792
 20
4216516.8
  0
VERTEX
 8
PG-LP
 10
424158.402
 20
4216518.79
  0
VERTEX
 8
PG-LP
 10
424161.592
 20
4216521.82
  0
VERTEX
 8
PG-LP
 10
424164.172
 20
4216525.28
  0
VERTEX
 8
PG-LP
 10
424167.392
 20
4216531.44
  0
VERTEX
 8
PG-LP
 10
424168.512
 20
4216533.28
  0
VERTEX
 8
PG-LP
 10
424169.372
 20
4216537.19
  0
VERTEX
 8
PG-LP
 10
424169.292
 20
4216541.11
  0
VERTEX
 8
PG-LP
 10
424168.512
 20
4216544.81
  0
VERTEX
 8
PG-LP
 10
424167.022
 20
4216548.7895
  0
VERTEX
 8
PG-LP
 10
424166.6925
 20
4216549.6795
  0
VERTEX
 8
PG-LP
 10
424164.9425
 20
4216553.3295
  0
VERTEX
 8
PG-LP
 10
424164.1825
 20
4216554.8295
  0
VERTEX
 8
PG-LP
 10
424152.9425
 20
4216576.8395
  0
VERTEX
 8
PG-LP
 10
424148.0025
 20
4216586.8895
  0
VERTEX
 8
PG-LP
 10
424132.4815
 20
4216629.596
  0
VERTEX
 8
PG-LP
 10
424108.454
 20
4216701.178
  0
VERTEX
 8
PG-LP
 10
424107.794
 20
4216704.068
  0
VERTEX
 8
PG-LP
 10
424097.3145
 20
4216749.9775
  0
VERTEX
 8
PG-LP
 10
424097.1645
 20
4216750.6275
  0
VERTEX
 8
PG-LP
 10
424096.0345
 20
4216755.5575
  0
VERTEX
 8
PG-LP
 10
424095.8945
 20
4216756.1775
  0
VERTEX
 8
PG-LP
 10
424094.9445
 20
4216760.347
  0
VERTEX
 8
PG-LP
 10
424091.7045
 20
4216774.587
  0
VERTEX
 8
PG-LP
 10
424091.1045
 20
4216777.377
  0
VERTEX
 8
PG-LP
 10
424088.625
 20
4216789.007
  0
VERTEX
 8
PG-LP
 10
424087.685
 20
4216793.497
  0
VERTEX
 8
PG-LP
 10
424087.055
 20
4216796.487
  0
VERTEX
 8
PG-LP
 10
424085.315
 20
4216804.8065
  0
VERTEX
 8
PG-LP
 10
424084.665
 20
4216807.9165
  0
VERTEX
 8
PG-LP
 10
424084.445
 20
4216808.9465
  0
VERTEX
 8
PG-LP
 10
424081.795
 20
4216820.5665
  0
VERTEX
 8
PG-LP
 10
424080.655
 20
4216825.5465
  0
VERTEX
 8
PG-LP
 10
424080.795
 20
4216825.572
  0
VERTEX
 8
PG-LP
 10
424080.775
 20
4216825.663
  0
VERTEX
 8
PG-LP
 10
424077.874
 20
4216838.974
  0
VERTEX
 8
PG-LP
 10
424074.937
 20
4216853.154
  0
VERTEX
 8
PG-LP
 10
424072.355
 20
4216863.2975
  0
VERTEX
 8
PG-LP
 10
424070.9425
 20
4216869.741
  0
VERTEX
 8
PG-LP
 10
424070.4725
 20
4216871.8845
  0
VERTEX
 8
PG-LP
 10
424070.096
 20
4216873.6035
  0
VERTEX
 8
PG-LP
 10
424066.575
 20
4216886.1905
  0
VERTEX
 8
PG-LP
 10
424066.71
 20
4216886.23
  0
VERTEX
 8
PG-LP
 10
424068.2415
 20
4216886.6795
  0
VERTEX
 8
PG-LP
 10
424066.756
 20
4216893.2755
  0
VERTEX
 8
PG-LP
 10
424064.456
 20
4216904.9755
  0
VERTEX
 8
PG-LP
 10
424062.516
 20
4216913.8455
  0
VERTEX
 8
PG-LP
 10
424060.5165
 20
4216924.875
  0
VERTEX
 8
PG-LP
 10
424060.1565
 20
4216927.095
  0
VERTEX
 8
PG-LP
 10
424059.2065
 20
4216932.995
  0
VERTEX
 8
PG-LP
 10
424057.2065
 20
4216939.945
  0
VERTEX
 8
PG-LP
 10
424054.7265
 20
4216947.285
  0
VERTEX
 8
PG-LP
 10
424052.4765
 20
4216952.725
  0
VERTEX
 8
PG-LP
 10
424049.7965
 20
4216957.635
  0
VERTEX
 8
PG-LP
 10
424046.4665
 20
4216964.0945
  0
VERTEX
 8
PG-LP
 10
424043.2865
 20
4216970.4545
  0
VERTEX
 8
PG-LP
 10
424041.777
 20
4216972.5345
  0
VERTEX
 8
PG-LP
 10
424041.167
 20
4216973.3745
  0
VERTEX
 8
PG-LP
 10
424039.567
 20
4216974.3445
  0
VERTEX
 8
PG-LP
 10
424036.907
 20
4216974.8545
  0
VERTEX
 8
PG-LP
 10
424044.567
 20
4216977.5345
  0
VERTEX
 8
PG-LP
 10
424049.402
 20
4216980.7075
  0
VERTEX
 8
PG-LP
 10
424050.2385
 20
4216981.2555
  0
VERTEX
 8
PG-LP
 10
424050.742
 20
4216980.491
  0
VERTEX
 8
PG-LP
 10
424050.96
 20
4216980.16
  0
VERTEX
 8
PG-LP
 10
424049.81
 20
4216976.0
  0
VERTEX
 8
PG-LP
 10
424052.136
 20
4216969.3415
  0
VERTEX
 8
PG-LP
 10
424053.0535
 20
4216966.7145
  0
SEQEND
  8
0
  0
POLYLINE
  8
PG-LP
 66
1
  0
VERTEX
 8
PG-LP
 10
424065.168
 20
4216238.18
  0
VERTEX
 8
PG-LP
 10
424034.638
 20
4216240.205
  0
VERTEX
 8
PG-LP
 10
424009.306
 20
4216243.484
  0
VERTEX
 8
PG-LP
 10
423999.471
 20
4216245.57
  0
VERTEX
 8
PG-LP
 10
423983.378
 20
4216248.252
  0
VERTEX
 8
PG-LP
 10
423970.861
 20
4216253.02
  0
VERTEX
 8
PG-LP
 10
423958.512
 20
4216269.455
  0
VERTEX
 8
PG-LP
 10
423927.661
 20
4216253.873
  0
VERTEX
 8
PG-LP
 10
423904.622
 20
4216239.636
  0
VERTEX
 8
PG-LP
 10
423899.058
 20
4216234.666
  0
VERTEX
 8
PG-LP
 10
423898.307
 20
4216231.096
  0
VERTEX
 8
PG-LP
 10
423898.764
 20
4216226.718
  0
VERTEX
 8
PG-LP
 10
423900.863
 20
4216224.164
  0
VERTEX
 8
PG-LP
 10
423904.153
 20
4216222.204
  0
VERTEX
 8
PG-LP
 10
423908.455
 20
4216221.341
  0
VERTEX
 8
PG-LP
 10
423936.196
 20
4216223.274
  0
VERTEX
 8
PG-LP
 10
423943.832
 20
4216222.676
  0
VERTEX
 8
PG-LP
 10
423950.21
 20
4216220.02
  0
VERTEX
 8
PG-LP
 10
423960.038
 20
4216209.267
  0
VERTEX
 8
PG-LP
 10
423970.827
 20
4216183.032
  0
VERTEX
 8
PG-LP
 10
423975.734
 20
4216162.955
  0
VERTEX
 8
PG-LP
 10
423984.834
 20
4216116.275
  0
VERTEX
 8
PG-LP
 10
423985.696
 20
4216106.938
  0
VERTEX
 8
PG-LP
 10
423989.561
 20
4216101.251
  0
VERTEX
 8
PG-LP
 10
423992.982
 20
4216098.279
  0
VERTEX
 8
PG-LP
 10
423996.743
 20
4216094.595
  0
VERTEX
 8
PG-LP
 10
423999.581
 20
4216092.743
  0
VERTEX
 8
PG-LP
 10
424001.844
 20
4216092.424
  0
VERTEX
 8
PG-LP
 10
424005.083
 20
4216092.569
  0
VERTEX
 8
PG-LP
 10
424007.805
 20
4216093.669
  0
VERTEX
 8
PG-LP
 10
424009.081
 20
4216095.13
  0
VERTEX
 8
PG-LP
 10
424013.086
 20
4216099.595
  0
VERTEX
 8
PG-LP
 10
424015.74
 20
4216102.351
  0
VERTEX
 8
PG-LP
 10
424017.904
 20
4216106.321
  0
VERTEX
 8
PG-LP
 10
424021.317
 20
4216122.14
  0
VERTEX
 8
PG-LP
 10
424024.907
 20
4216139.988
  0
VERTEX
 8
PG-LP
 10
424029.429
 20
4216155.956
  0
VERTEX
 8
PG-LP
 10
424032.003
 20
4216160.925
  0
VERTEX
 8
PG-LP
 10
424035.525
 20
4216165.3
  0
VERTEX
 8
PG-LP
 10
424040.018
 20
4216167.285
  0
VERTEX
 8
PG-LP
 10
424044.32
 20
4216168.339
  0
VERTEX
 8
PG-LP
 10
424050.041
 20
4216168.118
  0
VERTEX
 8
PG-LP
 10
424054.654
 20
4216166.981
  0
VERTEX
 8
PG-LP
 10
424067.731
 20
4216162.156
  0
VERTEX
 8
PG-LP
 10
424074.812
 20
4216160.228
  0
VERTEX
 8
PG-LP
 10
424065.168
 20
4216238.18
  0
SEQEND
  8
0
  0
POLYLINE
  8
PG-LP
 66
1
  0
VERTEX
 8
PG-LP
 10
424112.4215
 20
4216501.8705
  0
VERTEX
 8
PG-LP
 10
424110.7515
 20
4216502.5205
  0
VERTEX
 8
PG-LP
 10
424110.1615
 20
4216502.7505
  0
VERTEX
 8
PG-LP
 10
424103.5815
 20
4216505.7405
  0
VERTEX
 8
PG-LP
 10
424100.0315
 20
4216507.7605
  0
VERTEX
 8
PG-LP
 10
424095.4715
 20
4216510.3605
  0
VERTEX
 8
PG-LP
 10
424093.0515
 20
4216511.8505
  0
VERTEX
 8
PG-LP
 10
424084.3415
 20
4216517.1905
  0
VERTEX
 8
PG-LP
 10
424083.5415
 20
4216517.6805
  0
VERTEX
 8
PG-LP
 10
424078.2615
 20
4216520.7905
  0
VERTEX
 8
PG-LP
 10
424074.6515
 20
4216522.9105
  0
VERTEX
 8
PG-LP
 10
424071.5515
 20
4216524.4005
  0
VERTEX
 8
PG-LP
 10
424069.5015
 20
4216525.3805
  0
VERTEX
 8
PG-LP
 10
424065.3815
 20
4216527.0605
  0
VERTEX
 8
PG-LP
 10
424063.7415
 20
4216527.5605
  0
VERTEX
 8
PG-LP
 10
424061.9915
 20
4216527.7205
  0
VERTEX
 8
PG-LP
 10
424060.9415
 20
4216527.8105
  0
VERTEX
 8
PG-LP
 10
424058.0015
 20
4216527.9205
  0
VERTEX
 8
PG-LP
 10
424054.7615
 20
4216527.8405
  0
VERTEX
 8
PG-LP
 10
424052.2015
 20
4216526.8105
  0
VERTEX
 8
PG-LP
 10
424050.021
 20
4216525.2005
  0
VERTEX
 8
PG-LP
 10
424049.101
 20
4216524.1405
  0
VERTEX
 8
PG-LP
 10
424048.511
 20
4216523.4605
  0
VERTEX
 8
PG-LP
 10
424043.131
 20
4216515.0605
  0
VERTEX
 8
PG-LP
 10
424042.631
 20
4216514.0005
  0
VERTEX
 8
PG-LP
 10
424040.571
 20
4216509.6005
  0
VERTEX
 8
PG-LP
 10
424038.521
 20
4216504.111
  0
VERTEX
 8
PG-LP
 10
424038.141
 20
4216503.101
  0
VERTEX
 8
PG-LP
 10
424036.911
 20
4216499.641
  0
VERTEX
 8
PG-LP
 10
424036.661
 20
4216498.471
  0
VERTEX
 8
PG-LP
 10
424035.841
 20
4216494.671
  0
VERTEX
 8
PG-LP
 10
424035.2705
 20
4216491.121
  0
VERTEX
 8
PG-LP
 10
424034.8805
 20
4216488.731
  0
VERTEX
 8
PG-LP
 10
424034.3805
 20
4216486.071
  0
VERTEX
 8
PG-LP
 10
424033.4605
 20
4216481.151
  0
VERTEX
 8
PG-LP
 10
424033.4005
 20
4216480.851
  0
VERTEX
 8
PG-LP
 10
424033.3705
 20
4216480.711
  0
VERTEX
 8
PG-LP
 10
424033.1205
 20
4216479.611
  0
VERTEX
 8
PG-LP
 10
424033.0305
 20
4216471.4715
  0
VERTEX
 8
PG-LP
 10
424033.0005
 20
4216468.6315
  0
VERTEX
 8
PG-LP
 10
424032.9005
 20
4216461.1115
  0
VERTEX
 8
PG-LP
 10
424032.79
 20
4216452.8515
  0
VERTEX
 8
PG-LP
 10
424032.72
 20
4216447.7215
  0
VERTEX
 8
PG-LP
 10
424032.67
 20
4216441.5215
  0
VERTEX
 8
PG-LP
 10
424032.6
 20
4216433.322
  0
VERTEX
 8
PG-LP
 10
424032.56
 20
4216427.852
  0
VERTEX
 8
PG-LP
 10
424032.47
 20
4216423.372
  0
VERTEX
 8
PG-LP
 10
424032.33
 20
4216416.202
  0
VERTEX
 8
PG-LP
 10
424032.2895
 20
4216414.322
  0
VERTEX
 8
PG-LP
 10
424032.4895
 20
4216410.172
  0
VERTEX
 8
PG-LP
 10
424032.5595
 20
4216408.662
  0
VERTEX
 8
PG-LP
 10
424039.5395
 20
4216407.442
  0
VERTEX
 8
PG-LP
 10
424047.0395
 20
4216406.742
  0
VERTEX
 8
PG-LP
 10
424051.4795
 20
4216406.332
  0
VERTEX
 8
PG-LP
 10
424058.72
 20
4216405.772
  0
VERTEX
 8
PG-LP
 10
424065.45
 20
4216404.872
  0
VERTEX
 8
PG-LP
 10
424069.01
 20
4216404.402
  0
VERTEX
 8
PG-LP
 10
424071.52
 20
4216404.302
  0
VERTEX
 8
PG-LP
 10
424075.66
 20
4216404.132
  0
VERTEX
 8
PG-LP
 10
424078.27
 20
4216404.172
  0
VERTEX
 8
PG-LP
 10
424085.91
 20
4216404.302
  0
VERTEX
 8
PG-LP
 10
424087.57
 20
4216404.392
  0
VERTEX
 8
PG-LP
 10
424094.04
 20
4216404.742
  0
VERTEX
 8
PG-LP
 10
424100.86
 20
4216405.442
  0
VERTEX
 8
PG-LP
 10
424104.58
 20
4216405.822
  0
VERTEX
 8
PG-LP
 10
424159.678
 20
4216411.612
  0
VERTEX
 8
PG-LP
 10
424187.096
 20
4216420.851
  0
VERTEX
 8
PG-LP
 10
424227.627
 20
4216435.156
  0
VERTEX
 8
PG-LP
 10
424233.37
 20
4216437.29
  0
VERTEX
 8
PG-LP
 10
424253.29
 20
4216444.71
  0
VERTEX
 8
PG-LP
 10
424274.95
 20
4216453.56
  0
VERTEX
 8
PG-LP
 10
424280.252
 20
4216455.7305
  0
VERTEX
 8
PG-LP
 10
424280.639
 20
4216455.9175
  0
VERTEX
 8
PG-LP
 10
424284.022
 20
4216457.5505
  0
VERTEX
 8
PG-LP
 10
424286.85
 20
4216458.15
  0
VERTEX
 8
PG-LP
 10
424288.032
 20
4216458.4005
  0
VERTEX
 8
PG-LP
 10
424295.392
 20
4216459.4505
  0
VERTEX
 8
PG-LP
 10
424310.742
 20
4216459.0805
  0
VERTEX
 8
PG-LP
 10
424322.322
 20
4216458.9705
  0
VERTEX
 8
PG-LP
 10
424329.012
 20
4216459.3505
  0
VERTEX
 8
PG-LP
 10
424336.162
 20
4216460.1005
  0
VERTEX
 8
PG-LP
 10
424340.152
 20
4216460.9605
  0
VERTEX
 8
PG-LP
 10
424343.3325
 20
4216462.02
  0
VERTEX
 8
PG-LP
 10
424346.3325
 20
4216463.8
  0
VERTEX
 8
PG-LP
 10
424348.7925
 20
4216465.85
  0
VERTEX
 8
PG-LP
 10
424349.7125
 20
4216467.38
  0
VERTEX
 8
PG-LP
 10
424350.4825
 20
4216472.26
  0
VERTEX
 8
PG-LP
 10
424351.0425
 20
4216483.56
  0
VERTEX
 8
PG-LP
 10
424351.209
 20
4216488.0155
  0
VERTEX
 8
PG-LP
 10
424351.2825
 20
4216489.98
  0
VERTEX
 8
PG-LP
 10
424351.8625
 20
4216493.51
  0
VERTEX
 8
PG-LP
 10
424352.556
 20
4216495.2055
  0
VERTEX
 8
PG-LP
 10
424352.7825
 20
4216495.76
  0
VERTEX
 8
PG-LP
 10
424353.503
 20
4216496.81
  0
VERTEX
 8
PG-LP
 10
424344.753
 20
4216531.4495
  0
VERTEX
 8
PG-LP
 10
424273.2125
 20
4216523.3595
  0
VERTEX
 8
PG-LP
 10
424268.727
 20
4216549.155
  0
VERTEX
 8
PG-LP
 10
424264.147
 20
4216553.841
  0
VERTEX
 8
PG-LP
 10
424261.84
 20
4216556.68
  0
VERTEX
 8
PG-LP
 10
424255.23
 20
4216564.81
  0
VERTEX
 8
PG-LP
 10
424252.47
 20
4216568.65
  0
VERTEX
 8
PG-LP
 10
424250.041
 20
4216572.035
  0
VERTEX
 8
PG-LP
 10
424247.883
 20
4216576.06
  0
VERTEX
 8
PG-LP
 10
424158.476
 20
4216577.984
  0
VERTEX
 8
PG-LP
 10
424161.698
 20
4216571.729
  0
VERTEX
 8
PG-LP
 10
424165.78
 20
4216563.926
  0
VERTEX
 8
PG-LP
 10
424173.838
 20
4216547.818
  0
VERTEX
 8
PG-LP
 10
424176.598
 20
4216541.493
  0
VERTEX
 8
PG-LP
 10
424178.105
 20
4216529.682
  0
VERTEX
 8
PG-LP
 10
424167.164
 20
4216510.718
  0
VERTEX
 8
PG-LP
 10
424158.001
 20
4216503.465
  0
VERTEX
 8
PG-LP
 10
424145.707
 20
4216498.797
  0
VERTEX
 8
PG-LP
 10
424135.053
 20
4216497.505
  0
VERTEX
 8
PG-LP
 10
424122.759
 20
4216498.946
  0
VERTEX
 8
PG-LP
 10
424112.4215
 20
4216501.8705
  0
SEQEND
  8
0
  0
POLYLINE
  8
PG-LP
 66
1
  0
VERTEX
 8
PG-LP
 10
424173.834
 20
4216411.687
  0
VERTEX
 8
PG-LP
 10
424159.976
 20
4216407.142
  0
VERTEX
 8
PG-LP
 10
424152.903
 20
4216404.982
  0
VERTEX
 8
PG-LP
 10
424146.119
 20
4216403.703
  0
VERTEX
 8
PG-LP
 10
424120.456
 20
4216400.633
  0
VERTEX
 8
PG-LP
 10
424102.62
 20
4216398.669
  0
VERTEX
 8
PG-LP
 10
424097.694
 20
4216398.176
  0
VERTEX
 8
PG-LP
 10
424092.608
 20
4216397.94
  0
VERTEX
 8
PG-LP
 10
424088.349
 20
4216397.881
  0
VERTEX
 8
PG-LP
 10
424083.207
 20
4216397.733
  0
VERTEX
 8
PG-LP
 10
424077.847
 20
4216397.705
  0
VERTEX
 8
PG-LP
 10
424075.038
 20
4216397.654
  0
VERTEX
 8
PG-LP
 10
424072.561
 20
4216346.625
  0
VERTEX
 8
PG-LP
 10
424074.284
 20
4216347.099
  0
VERTEX
 8
PG-LP
 10
424076.788
 20
4216347.516
  0
VERTEX
 8
PG-LP
 10
424080.21
 20
4216348.016
  0
VERTEX
 8
PG-LP
 10
424087.304
 20
4216348.6
  0
VERTEX
 8
PG-LP
 10
424093.731
 20
4216348.934
  0
VERTEX
 8
PG-LP
 10
424100.233
 20
4216349.312
  0
VERTEX
 8
PG-LP
 10
424174.143
 20
4216351.995
  0
VERTEX
 8
PG-LP
 10
424173.834
 20
4216411.687
  0
SEQEND
  8
0
  0
POLYLINE
  8
PG-LP
 66
1
  0
VERTEX
 8
PG-LP
 10
424227.478
 20
4216853.655
  0
VERTEX
 8
PG-LP
 10
424223.479
 20
4216860.701
  0
VERTEX
 8
PG-LP
 10
424222.553
 20
4216862.332
  0
VERTEX
 8
PG-LP
 10
424221.219
 20
4216864.682
  0
VERTEX
 8
PG-LP
 10
424214.365
 20
4216876.603
  0
VERTEX
 8
PG-LP
 10
424201.997
 20
4216890.238
  0
VERTEX
 8
PG-LP
 10
424192.162
 20
4216906.927
  0
VERTEX
 8
PG-LP
 10
424173.983
 20
4216932.557
  0
VERTEX
 8
PG-LP
 10
424165.638
 20
4216939.411
  0
VERTEX
 8
PG-LP
 10
424156.995
 20
4216939.113
  0
VERTEX
 8
PG-LP
 10
424149.247
 20
4216934.047
  0
VERTEX
 8
PG-LP
 10
424142.13
 20
4216917.818
  0
VERTEX
 8
PG-LP
 10
424138.927
 20
4216904.306
  0
VERTEX
 8
PG-LP
 10
424127.491
 20
4216869.674
  0
VERTEX
 8
PG-LP
 10
424120.45
 20
4216859.305
  0
VERTEX
 8
PG-LP
 10
424114.787
 20
4216853.94
  0
VERTEX
 8
PG-LP
 10
424110.834
 20
4216851.744
  0
VERTEX
 8
PG-LP
 10
424106.629
 20
4216849.408
  0
VERTEX
 8
PG-LP
 10
424098.098
 20
4216846.192
  0
VERTEX
 8
PG-LP
 10
424082.49
 20
4216847.322
  0
VERTEX
 8
PG-LP
 10
424090.234
 20
4216815.915
  0
VERTEX
 8
PG-LP
 10
424183.363
 20
4216821.31
  0
VERTEX
 8
PG-LP
 10
424230.134
 20
4216828.19
  0
VERTEX
 8
PG-LP
 10
424229.862
 20
4216845.311
  0
VERTEX
 8
PG-LP
 10
424227.478
 20
4216853.655
  0
SEQEND
  8
0
  0
POLYLINE
  8
PG-LP
 66
1
  0
VERTEX
 8
PG-LP
 10
424228.074
 20
4216754.115
  0
VERTEX
 8
PG-LP
 10
424226.882
 20
4216767.527
  0
VERTEX
 8
PG-LP
 10
424226.844
 20
4216777.646
  0
VERTEX
 8
PG-LP
 10
424226.981
 20
4216784.194
  0
VERTEX
 8
PG-LP
 10
424191.218
 20
4216779.426
  0
VERTEX
 8
PG-LP
 10
424100.619
 20
4216776.445
  0
VERTEX
 8
PG-LP
 10
424105.549
 20
4216753.805
  0
VERTEX
 8
PG-LP
 10
424114.475
 20
4216715.359
  0
VERTEX
 8
PG-LP
 10
424142.342
 20
4216630.414
  0
VERTEX
 8
PG-LP
 10
424143.158
 20
4216627.927
  0
VERTEX
 8
PG-LP
 10
424239.69
 20
4216624.675
  0
VERTEX
 8
PG-LP
 10
424286.232
 20
4216631.782
  0
VERTEX
 8
PG-LP
 10
424285.095
 20
4216634.139
  0
VERTEX
 8
PG-LP
 10
424242.043
 20
4216723.406
  0
VERTEX
 8
PG-LP
 10
424234.034
 20
4216738.618
  0
VERTEX
 8
PG-LP
 10
424228.074
 20
4216754.115
  0
SEQEND
  8
0
  0
ENDSEC
  0
EOF
